<svg xmlns="http://www.w3.org/2000/svg" xmlns:v="https://svgstorm.com"
viewBox = "0 0 225 225"
width="225"
height="225">
<g fill="None" fill-opacity="0.0" stroke="#F5F5F5" stroke-opacity="1.00" stroke-width="0.3"><path d="
M 0.00 225.00 
L 225.00 225.00
L 225.00 0.00
L 0.00 0.00
L 0.00 225.00
M 142.00 35.00 
C 142.64 35.17 143.98 35.76 145.00 36.00
C 150.01 37.16 153.36 39.62 157.00 43.00
C 157.67 43.42 158.32 43.65 159.00 44.00
C 161.19 45.12 163.08 46.49 165.00 48.00
C 170.23 52.13 175.73 57.37 179.00 63.00
C 182.00 68.15 185.56 73.34 188.00 79.00
C 189.95 82.36 191.19 84.97 192.00 89.00
C 192.95 93.74 193.90 97.94 194.00 103.00
C 194.73 109.04 194.86 116.01 194.00 122.00
C 193.37 138.43 185.34 152.92 176.00 166.00
C 169.95 174.47 160.18 182.35 151.00 186.00
C 147.98 187.20 144.71 188.64 142.00 190.00
C 140.28 190.86 138.59 192.98 136.00 192.00
C 136.73 190.65 138.83 191.04 140.00 190.00
C 136.87 182.95 141.30 172.90 140.00 165.00 C 138.70 157.10 140.48 147.27 140.00 139.00 C 139.52 130.73 139.98 121.38 140.00 113.00 C 140.02 104.62 139.47 95.30 140.00 87.00 C 140.53 78.70 138.60 68.98 140.00 61.00 C 141.40 53.02 136.80 42.20 140.00 35.00
C 131.33 33.90 123.16 29.98 114.00 30.00 C 104.84 30.03 95.02 33.38 87.00 33.00
C 104.50 27.81 125.59 27.05 142.00 35.00
M 40.00 72.00 
C 43.49 63.73 50.49 55.59 58.00 50.00
C 66.30 43.83 75.19 38.04 85.00 35.00
C 85.00 86.67 85.00 138.33 85.00 190.00
C 37.58 175.39 15.77 114.31 40.00 72.00
M 105.00 194.00 
C 99.95 196.87 97.74 192.83 105.00 194.00
M 126.00 194.00 
C 120.95 196.87 118.74 192.83 126.00 194.00 Z"/>
</g>
<g fill="None" fill-opacity="0.0" stroke="#C4C8C6" stroke-opacity="1.00" stroke-width="0.3"><path d="
M 140.00 35.00 
C 140.49 35.06 141.53 34.88 142.00 35.00
C 125.59 27.05 104.50 27.81 87.00 33.00
C 95.02 33.38 104.84 30.03 114.00 30.00 C 123.16 29.98 131.33 33.90 140.00 35.00 Z"/>
</g>
<g fill="None" fill-opacity="0.0" stroke="#29358D" stroke-opacity="1.00" stroke-width="0.3"><path d="
M 58.00 50.00 
C 51.19 55.93 44.34 64.69 40.00 72.00
C 15.77 114.31 37.58 175.39 85.00 190.00
C 85.00 138.33 85.00 86.67 85.00 35.00
C 75.19 38.04 66.30 43.83 58.00 50.00 Z"/>
</g>
<g fill="None" fill-opacity="0.0" stroke="#EC323F" stroke-opacity="1.00" stroke-width="0.3"><path d="
M 140.00 190.00 
C 140.48 189.90 141.55 190.15 142.00 190.00
C 144.71 188.64 147.98 187.20 151.00 186.00
C 159.48 181.52 169.54 173.71 176.00 166.00
C 185.34 152.92 193.37 138.43 194.00 122.00
C 194.24 115.71 194.13 109.30 194.00 103.00
C 193.90 97.94 192.95 93.74 192.00 89.00
C 191.16 86.10 189.31 82.03 188.00 79.00
C 185.56 73.34 182.00 68.15 179.00 63.00
C 175.65 58.40 170.44 53.80 166.00 50.00
C 163.66 48.00 161.22 45.78 159.00 44.00
C 158.32 43.65 157.67 43.42 157.00 43.00
C 153.36 40.74 148.76 37.37 145.00 36.00
C 143.98 35.76 142.64 35.17 142.00 35.00
C 141.53 34.88 140.49 35.06 140.00 35.00
C 136.80 42.20 141.40 53.02 140.00 61.00 C 138.60 68.98 140.53 78.70 140.00 87.00 C 139.47 95.30 140.02 104.62 140.00 113.00 C 139.98 121.38 139.52 130.73 140.00 139.00 C 140.48 147.27 138.70 157.10 140.00 165.00 C 141.30 172.90 136.87 182.95 140.00 190.00 Z"/>
</g>
<g fill="None" fill-opacity="0.0" stroke="#C0C6C2" stroke-opacity="1.00" stroke-width="0.3"><path d="
M 157.00 43.00 
C 153.36 39.62 150.01 37.16 145.00 36.00
C 148.76 37.37 153.36 40.74 157.00 43.00 Z"/>
</g>
<g fill="None" fill-opacity="0.0" stroke="#BD9F9F" stroke-opacity="1.00" stroke-width="0.3"><path d="
M 166.00 50.00 
C 165.52 49.48 165.41 48.49 165.00 48.00
C 163.08 46.49 161.19 45.12 159.00 44.00
C 161.22 45.78 163.66 48.00 166.00 50.00 Z"/>
</g>
<g fill="None" fill-opacity="0.0" stroke="#BCBDB9" stroke-opacity="1.00" stroke-width="0.3"><path d="
M 166.00 50.00 
C 170.44 53.80 175.65 58.40 179.00 63.00
C 175.73 57.37 170.23 52.13 165.00 48.00
C 165.41 48.49 165.52 49.48 166.00 50.00 Z"/>
</g>
<g fill="None" fill-opacity="0.0" stroke="#B4BCC2" stroke-opacity="1.00" stroke-width="0.3"><path d="
M 40.00 72.00 
C 44.34 64.69 51.19 55.93 58.00 50.00
C 50.49 55.59 43.49 63.73 40.00 72.00 Z"/>
</g>
<g fill="None" fill-opacity="0.0" stroke="#BCB4B1" stroke-opacity="1.00" stroke-width="0.3"><path d="
M 192.00 89.00 
C 191.19 84.97 189.95 82.36 188.00 79.00
C 189.31 82.03 191.16 86.10 192.00 89.00 Z"/>
</g>
<g fill="None" fill-opacity="0.0" stroke="#C36E6F" stroke-opacity="1.00" stroke-width="0.3"><path d="
M 194.00 122.00 
C 194.86 116.01 194.73 109.04 194.00 103.00
C 194.13 109.30 194.24 115.71 194.00 122.00 Z"/>
</g>
<g fill="None" fill-opacity="0.0" stroke="#BCBBB8" stroke-opacity="1.00" stroke-width="0.3"><path d="
M 151.00 186.00 
C 160.18 182.35 169.95 174.47 176.00 166.00
C 169.54 173.71 159.48 181.52 151.00 186.00 Z"/>
</g>
<g fill="None" fill-opacity="0.0" stroke="#BDC1BD" stroke-opacity="1.00" stroke-width="0.3"><path d="
M 142.00 190.00 
C 141.55 190.15 140.48 189.90 140.00 190.00
C 138.83 191.04 136.73 190.65 136.00 192.00
C 138.59 192.98 140.28 190.86 142.00 190.00 Z"/>
</g>
<g fill="None" fill-opacity="0.0" stroke="#BBBFBE" stroke-opacity="1.00" stroke-width="0.3"><path d="
M 105.00 194.00 
C 97.74 192.83 99.95 196.87 105.00 194.00 Z"/>
</g>
<g fill="None" fill-opacity="0.0" stroke="#BCC0BE" stroke-opacity="1.00" stroke-width="0.3"><path d="
M 126.00 194.00 
C 118.74 192.83 120.95 196.87 126.00 194.00 Z"/>
</g>
<g fill="#F5F5F5" fill-opacity="1.00" stroke="None">
<path d="
M 0.00 225.00 
L 225.00 225.00
L 225.00 0.00
L 0.00 0.00
L 0.00 225.00
M 142.00 35.00 
C 142.64 35.17 143.98 35.76 145.00 36.00
C 150.01 37.16 153.36 39.62 157.00 43.00
C 157.67 43.42 158.32 43.65 159.00 44.00
C 161.19 45.12 163.08 46.49 165.00 48.00
C 170.23 52.13 175.73 57.37 179.00 63.00
C 182.00 68.15 185.56 73.34 188.00 79.00
C 189.95 82.36 191.19 84.97 192.00 89.00
C 192.95 93.74 193.90 97.94 194.00 103.00
C 194.73 109.04 194.86 116.01 194.00 122.00
C 193.37 138.43 185.34 152.92 176.00 166.00
C 169.95 174.47 160.18 182.35 151.00 186.00
C 147.98 187.20 144.71 188.64 142.00 190.00
C 140.28 190.86 138.59 192.98 136.00 192.00
C 136.73 190.65 138.83 191.04 140.00 190.00
C 136.87 182.95 141.30 172.90 140.00 165.00 C 138.70 157.10 140.48 147.27 140.00 139.00 C 139.52 130.73 139.98 121.38 140.00 113.00 C 140.02 104.62 139.47 95.30 140.00 87.00 C 140.53 78.70 138.60 68.98 140.00 61.00 C 141.40 53.02 136.80 42.20 140.00 35.00
C 131.33 33.90 123.16 29.98 114.00 30.00 C 104.84 30.03 95.02 33.38 87.00 33.00
C 104.50 27.81 125.59 27.05 142.00 35.00
M 40.00 72.00 
C 43.49 63.73 50.49 55.59 58.00 50.00
C 66.30 43.83 75.19 38.04 85.00 35.00
C 85.00 86.67 85.00 138.33 85.00 190.00
C 37.58 175.39 15.77 114.31 40.00 72.00
M 105.00 194.00 
C 99.95 196.87 97.74 192.83 105.00 194.00
M 126.00 194.00 
C 120.95 196.87 118.74 192.83 126.00 194.00 Z"/>
</g>
<g fill="#C4C8C6" fill-opacity="1.00" stroke="None">
<path d="
M 140.00 35.00 
C 140.49 35.06 141.53 34.88 142.00 35.00
C 125.59 27.05 104.50 27.81 87.00 33.00
C 95.02 33.38 104.84 30.03 114.00 30.00 C 123.16 29.98 131.33 33.90 140.00 35.00 Z"/>
</g>
<g fill="#29358D" fill-opacity="1.00" stroke="None">
<path d="
M 58.00 50.00 
C 51.19 55.93 44.34 64.69 40.00 72.00
C 15.77 114.31 37.58 175.39 85.00 190.00
C 85.00 138.33 85.00 86.67 85.00 35.00
C 75.19 38.04 66.30 43.83 58.00 50.00 Z"/>
</g>
<g fill="#EC323F" fill-opacity="1.00" stroke="None">
<path d="
M 140.00 190.00 
C 140.48 189.90 141.55 190.15 142.00 190.00
C 144.71 188.64 147.98 187.20 151.00 186.00
C 159.48 181.52 169.54 173.71 176.00 166.00
C 185.34 152.92 193.37 138.43 194.00 122.00
C 194.24 115.71 194.13 109.30 194.00 103.00
C 193.90 97.94 192.95 93.74 192.00 89.00
C 191.16 86.10 189.31 82.03 188.00 79.00
C 185.56 73.34 182.00 68.15 179.00 63.00
C 175.65 58.40 170.44 53.80 166.00 50.00
C 163.66 48.00 161.22 45.78 159.00 44.00
C 158.32 43.65 157.67 43.42 157.00 43.00
C 153.36 40.74 148.76 37.37 145.00 36.00
C 143.98 35.76 142.64 35.17 142.00 35.00
C 141.53 34.88 140.49 35.06 140.00 35.00
C 136.80 42.20 141.40 53.02 140.00 61.00 C 138.60 68.98 140.53 78.70 140.00 87.00 C 139.47 95.30 140.02 104.62 140.00 113.00 C 139.98 121.38 139.52 130.73 140.00 139.00 C 140.48 147.27 138.70 157.10 140.00 165.00 C 141.30 172.90 136.87 182.95 140.00 190.00 Z"/>
</g>
<g fill="#C0C6C2" fill-opacity="1.00" stroke="None">
<path d="
M 157.00 43.00 
C 153.36 39.62 150.01 37.16 145.00 36.00
C 148.76 37.37 153.36 40.74 157.00 43.00 Z"/>
</g>
<g fill="#BD9F9F" fill-opacity="1.00" stroke="None">
<path d="
M 166.00 50.00 
C 165.52 49.48 165.41 48.49 165.00 48.00
C 163.08 46.49 161.19 45.12 159.00 44.00
C 161.22 45.78 163.66 48.00 166.00 50.00 Z"/>
</g>
<g fill="#BCBDB9" fill-opacity="1.00" stroke="None">
<path d="
M 166.00 50.00 
C 170.44 53.80 175.65 58.40 179.00 63.00
C 175.73 57.37 170.23 52.13 165.00 48.00
C 165.41 48.49 165.52 49.48 166.00 50.00 Z"/>
</g>
<g fill="#B4BCC2" fill-opacity="1.00" stroke="None">
<path d="
M 40.00 72.00 
C 44.34 64.69 51.19 55.93 58.00 50.00
C 50.49 55.59 43.49 63.73 40.00 72.00 Z"/>
</g>
<g fill="#BCB4B1" fill-opacity="1.00" stroke="None">
<path d="
M 192.00 89.00 
C 191.19 84.97 189.95 82.36 188.00 79.00
C 189.31 82.03 191.16 86.10 192.00 89.00 Z"/>
</g>
<g fill="#C36E6F" fill-opacity="1.00" stroke="None">
<path d="
M 194.00 122.00 
C 194.86 116.01 194.73 109.04 194.00 103.00
C 194.13 109.30 194.24 115.71 194.00 122.00 Z"/>
</g>
<g fill="#BCBBB8" fill-opacity="1.00" stroke="None">
<path d="
M 151.00 186.00 
C 160.18 182.35 169.95 174.47 176.00 166.00
C 169.54 173.71 159.48 181.52 151.00 186.00 Z"/>
</g>
<g fill="#BDC1BD" fill-opacity="1.00" stroke="None">
<path d="
M 142.00 190.00 
C 141.55 190.15 140.48 189.90 140.00 190.00
C 138.83 191.04 136.73 190.65 136.00 192.00
C 138.59 192.98 140.28 190.86 142.00 190.00 Z"/>
</g>
<g fill="#BBBFBE" fill-opacity="1.00" stroke="None">
<path d="
M 105.00 194.00 
C 97.74 192.83 99.95 196.87 105.00 194.00 Z"/>
</g>
<g fill="#BCC0BE" fill-opacity="1.00" stroke="None">
<path d="
M 126.00 194.00 
C 118.74 192.83 120.95 196.87 126.00 194.00 Z"/>
</g>
</svg>