<?xml version="1.0" encoding="UTF-8"?>
<svg version="1.1" xmlns="http://www.w3.org/2000/svg" width="225" height="225">
<path d="M0 0 C74.25 0 148.5 0 225 0 C225 74.25 225 148.5 225 225 C150.75 225 76.5 225 0 225 C0 150.75 0 76.5 0 0 Z " fill="#D70024" transform="translate(0,0)"/>
<path d="M0 0 C0.33 0 0.66 0 1 0 C1 34.98 1 69.96 1 106 C-32.99 106 -66.98 106 -102 106 C-102 105.67 -102 105.34 -102 105 C-100.35 105 -98.7 105 -97 105 C-97 72.99 -97 40.98 -97 8 C-64.99 8 -32.98 8 0 8 C0 5.36 0 2.72 0 0 Z " fill="#F0EFEF" transform="translate(224,119)"/>
<path d="M0 0 C0.33 0 0.66 0 1 0 C1 1.98 1 3.96 1 6 C33.01 6 65.02 6 98 6 C98 38.01 98 70.02 98 103 C99.98 103 101.96 103 104 103 C104 103.33 104 103.66 104 104 C69.68 104 35.36 104 0 104 C0 69.68 0 35.36 0 0 Z " fill="#F0EFEF" transform="translate(0,121)"/>
<path d="M0 0 C33.66 0 67.32 0 102 0 C100.68 0.33 99.36 0.66 98 1 C98 33.01 98 65.02 98 98 C65.99 98 33.98 98 1 98 C1 100.64 1 103.28 1 106 C0.67 106 0.34 106 0 106 C0 71.02 0 36.04 0 0 Z " fill="#F0EFEF" transform="translate(0,0)"/>
<path d="M0 0 C34.65 0 69.3 0 105 0 C105 33.33 105 66.66 105 101 C104.67 100.01 104.34 99.02 104 98 C71.99 98 39.98 98 7 98 C7 65.99 7 33.98 7 1 C4.69 1 2.38 1 0 1 C0 0.67 0 0.34 0 0 Z " fill="#F0EFEF" transform="translate(120,0)"/>
<path d="M0 0 C0 19.14 0 38.28 0 58 C-12.77236677 54.51662724 -12.77236677 54.51662724 -19 51.25 C-19.67353516 50.90364502 -20.34707031 50.55729004 -21.04101562 50.20043945 C-33.71938463 43.58229464 -33.71938463 43.58229464 -38 40 C-38 37 -38 37 -36.60206604 35.23457336 C-35.94778122 34.58393417 -35.2934964 33.93329498 -34.61938477 33.26293945 C-33.88184464 32.52239822 -33.1443045 31.78185699 -32.38441467 31.01887512 C-31.1751255 29.82810616 -31.1751255 29.82810616 -29.94140625 28.61328125 C-29.12252426 27.79627243 -28.30364227 26.97926361 -27.45994568 26.13749695 C-25.72573006 24.41001178 -23.98791657 22.6861322 -22.24682617 20.96557617 C-19.57015872 18.32006956 -16.9043152 15.66403479 -14.24023438 13.00585938 C-12.55791363 11.33270773 -10.87499121 9.66016079 -9.19140625 7.98828125 C-7.98515343 6.78840324 -7.98515343 6.78840324 -6.75453186 5.56428528 C-6.01383957 4.83320053 -5.27314728 4.10211578 -4.51000977 3.34887695 C-3.52738914 2.37649834 -3.52738914 2.37649834 -2.5249176 1.38447571 C-1 0 -1 0 0 0 Z " fill="#0352B4" transform="translate(83,163)"/>
<path d="M0 0 C19.14 0 38.28 0 58 0 C53.3418271 15.13906191 53.3418271 15.13906191 50.1875 21.1875 C49.84783203 21.85458984 49.50816406 22.52167969 49.15820312 23.20898438 C46.24145211 28.80979569 42.85192118 33.99250246 39 39 C33.86187175 34.69849478 29.0461448 30.19337975 24.31640625 25.44921875 C23.61603745 24.74980667 22.91566864 24.05039459 22.19407654 23.32978821 C20.72817238 21.86455991 19.26351161 20.39808666 17.80004883 18.93041992 C15.54817756 16.67314318 13.2909546 14.42131555 11.03320312 12.16992188 C9.60644965 10.74250846 8.18000594 9.31478535 6.75390625 7.88671875 C6.07590469 7.21074142 5.39790314 6.5347641 4.69935608 5.83830261 C4.08128586 5.21708023 3.46321564 4.59585785 2.82641602 3.95581055 C2.27905289 3.40765182 1.73168976 2.8594931 1.16773987 2.29472351 C0 1 0 1 0 0 Z " fill="#0352B4" transform="translate(163,142)"/>
<path d="M0 0 C19.14 0 38.28 0 58 0 C51.25 7.875 51.25 7.875 48.38134766 10.73217773 C47.74113678 11.37231308 47.1009259 12.01244843 46.4413147 12.67198181 C45.77232147 13.33581375 45.10332825 13.99964569 44.4140625 14.68359375 C43.36138687 15.73414696 43.36138687 15.73414696 42.28744507 16.80592346 C40.06898864 19.01883027 37.84706185 21.22821416 35.625 23.4375 C34.11044534 24.94703314 32.59612015 26.45679657 31.08203125 27.96679688 C27.39066901 31.64719702 23.69645931 35.32471957 20 39 C14.59995735 33.77891485 14.59995735 33.77891485 12.71875 30.46875 C12.35394531 29.8291333 11.98914062 29.1895166 11.61328125 28.53051758 C11.24589844 27.86044678 10.87851563 27.19037598 10.5 26.5 C10.11199219 25.80092529 9.72398438 25.10185059 9.32421875 24.3815918 C5.10149538 16.604331 1.74239318 8.71196589 0 0 Z " fill="#0352B4" transform="translate(4,142)"/>
<path d="M0 0 C4.01003832 3.88473759 6.76598075 7.47403573 9.4375 12.3125 C9.82220459 13.00166504 10.20690918 13.69083008 10.60327148 14.40087891 C20 31.72787382 20 31.72787382 20 39 C0.86 39 -18.28 39 -38 39 C-31.25 31.125 -31.25 31.125 -28.38134766 28.26782227 C-27.74113678 27.62768692 -27.1009259 26.98755157 -26.4413147 26.32801819 C-25.77232147 25.66418625 -25.10332825 25.00035431 -24.4140625 24.31640625 C-23.71227875 23.61603745 -23.010495 22.91566864 -22.28744507 22.19407654 C-20.06898864 19.98116973 -17.84706185 17.77178584 -15.625 15.5625 C-14.11044534 14.05296686 -12.59612015 12.54320343 -11.08203125 11.03320312 C-7.39066901 7.35280298 -3.69645931 3.67528043 0 0 Z " fill="#0352B4" transform="translate(201,44)"/>
<path d="M0 0 C5.13812825 4.30150522 9.9538552 8.80662025 14.68359375 13.55078125 C15.73414696 14.59989937 15.73414696 14.59989937 16.80592346 15.67021179 C18.27182762 17.13544009 19.73648839 18.60191334 21.19995117 20.06958008 C23.45182244 22.32685682 25.7090454 24.57868445 27.96679688 26.83007812 C29.39355035 28.25749154 30.81999406 29.68521465 32.24609375 31.11328125 C32.92409531 31.78925858 33.60209686 32.4652359 34.30064392 33.16169739 C34.91871414 33.78291977 35.53678436 34.40414215 36.17358398 35.04418945 C36.72094711 35.59234818 37.26831024 36.1405069 37.83226013 36.70527649 C39 38 39 38 39 39 C19.86 39 0.72 39 -19 39 C-15.51881733 26.23566354 -15.51881733 26.23566354 -12.25 20 C-11.90509521 19.32573975 -11.56019043 18.65147949 -11.20483398 17.95678711 C-3.89300356 3.89300356 -3.89300356 3.89300356 0 0 Z " fill="#0352B4" transform="translate(23,44)"/>
<path d="M0 0 C15.13906191 4.6581729 15.13906191 4.6581729 21.1875 7.8125 C21.85458984 8.15216797 22.52167969 8.49183594 23.20898438 8.84179688 C28.80979569 11.75854789 33.99250246 15.14807882 39 19 C34.69849478 24.13812825 30.19337975 28.9538552 25.44921875 33.68359375 C24.74980667 34.38396255 24.05039459 35.08433136 23.32978821 35.80592346 C21.86455991 37.27182762 20.39808666 38.73648839 18.93041992 40.19995117 C16.67314318 42.45182244 14.42131555 44.7090454 12.16992188 46.96679688 C10.74250846 48.39355035 9.31478535 49.81999406 7.88671875 51.24609375 C7.21074142 51.92409531 6.5347641 52.60209686 5.83830261 53.30064392 C5.21708023 53.91871414 4.59585785 54.53678436 3.95581055 55.17358398 C3.40765182 55.72094711 2.8594931 56.26831024 2.29472351 56.83226013 C1 58 1 58 0 58 C0 38.86 0 19.72 0 0 Z " fill="#0352B4" transform="translate(142,4)"/>
<path d="M0 0 C0 19.14 0 38.28 0 58 C-7.875 51.25 -7.875 51.25 -10.73217773 48.38134766 C-11.37231308 47.74113678 -12.01244843 47.1009259 -12.67198181 46.4413147 C-13.33581375 45.77232147 -13.99964569 45.10332825 -14.68359375 44.4140625 C-15.38396255 43.71227875 -16.08433136 43.010495 -16.80592346 42.28744507 C-19.01883027 40.06898864 -21.22821416 37.84706185 -23.4375 35.625 C-24.94703314 34.11044534 -26.45679657 32.59612015 -27.96679688 31.08203125 C-31.64719702 27.39066901 -35.32471957 23.69645931 -39 20 C-35.11526241 15.98996168 -31.52596427 13.23401925 -26.6875 10.5625 C-25.99833496 10.17779541 -25.30916992 9.79309082 -24.59912109 9.39672852 C-7.27212618 0 -7.27212618 0 0 0 Z " fill="#0352B4" transform="translate(83,4)"/>
<path d="M0 0 C7.875 6.75 7.875 6.75 10.73217773 9.61865234 C11.37231308 10.25886322 12.01244843 10.8990741 12.67198181 11.5586853 C13.33581375 12.22767853 13.99964569 12.89667175 14.68359375 13.5859375 C15.38396255 14.28772125 16.08433136 14.989505 16.80592346 15.71255493 C19.01883027 17.93101136 21.22821416 20.15293815 23.4375 22.375 C24.94703314 23.88955466 26.45679657 25.40387985 27.96679688 26.91796875 C31.64719702 30.60933099 35.32471957 34.30354069 39 38 C35.13339732 41.98748559 31.55869981 44.76639486 26.75 47.4375 C26.06413818 47.82220459 25.37827637 48.20690918 24.67163086 48.60327148 C7.32699135 58 7.32699135 58 0 58 C0 38.86 0 19.72 0 0 Z " fill="#0352B4" transform="translate(142,163)"/>
<path d="M0 0 C0.73095971 5.60357554 1.2992741 10.77469154 -1.63037109 15.79238892 C-4.02085233 18.52000696 -6.52758133 20.99137843 -9.1875 23.45703125 C-10.58585083 24.8277906 -10.58585083 24.8277906 -12.01245117 26.22624207 C-14.4704584 28.63502402 -16.96490822 31.0021763 -19.46960449 33.36224365 C-22.02679158 35.78552364 -24.54677452 38.24686104 -27.0703125 40.70507812 C-32.01147693 45.50755767 -36.992263 50.26700419 -42 55 C-44.8605891 53.64062915 -46.85927699 52.35479531 -49 50 C-47.471717 46.38967135 -45.32836339 44.08058234 -42.56616211 41.32324219 C-41.18979836 39.94226349 -41.18979836 39.94226349 -39.78562927 38.53338623 C-38.78304791 37.53770072 -37.78028169 36.54220133 -36.77734375 35.546875 C-35.75090183 34.52162553 -34.72482966 33.49600574 -33.69911194 32.47003174 C-31.55273204 30.32521355 -29.40304056 28.18379075 -27.25073242 26.04492188 C-24.48578879 23.29702123 -21.72752759 20.5425297 -18.97147274 17.78571701 C-16.85546617 15.66998162 -14.7368693 13.55685671 -12.61737251 11.44461823 C-11.59883994 10.42927657 -10.58091961 9.41332038 -9.56361198 8.3967514 C-8.14640641 6.98170187 -6.72552001 5.57034161 -5.30444336 4.15917969 C-4.0910453 2.95149933 -4.0910453 2.95149933 -2.85313416 1.71942139 C-1 0 -1 0 0 0 Z " fill="#D70020" transform="translate(83,143)"/>
<path d="M0 0 C5.60357554 -0.73095971 10.77469154 -1.2992741 15.79238892 1.63037109 C18.52000696 4.02085233 20.99137843 6.52758133 23.45703125 9.1875 C24.37087082 10.11973389 25.28471039 11.05196777 26.22624207 12.01245117 C28.63502402 14.4704584 31.0021763 16.96490822 33.36224365 19.46960449 C35.78552364 22.02679158 38.24686104 24.54677452 40.70507812 27.0703125 C45.50755767 32.01147693 50.26700419 36.992263 55 42 C53.64062915 44.8605891 52.35479531 46.85927699 50 49 C46.38967135 47.471717 44.08058234 45.32836339 41.32324219 42.56616211 C39.94226349 41.18979836 39.94226349 41.18979836 38.53338623 39.78562927 C37.53770072 38.78304791 36.54220133 37.78028169 35.546875 36.77734375 C34.52162553 35.75090183 33.49600574 34.72482966 32.47003174 33.69911194 C30.32521355 31.55273204 28.18379075 29.40304056 26.04492188 27.25073242 C23.29702123 24.48578879 20.5425297 21.72752759 17.78571701 18.97147274 C15.66998162 16.85546617 13.55685671 14.7368693 11.44461823 12.61737251 C10.42927657 11.59883994 9.41332038 10.58091961 8.3967514 9.56361198 C6.98170187 8.14640641 5.57034161 6.72552001 4.15917969 5.30444336 C3.35405945 4.49551132 2.54893921 3.68657928 1.71942139 2.85313416 C0 1 0 1 0 0 Z " fill="#D70020" transform="translate(143,142)"/>
<path d="M0 0 C3.61032865 1.528283 5.91941766 3.67163661 8.67675781 6.43383789 C9.59741028 7.35141373 10.51806274 8.26898956 11.46661377 9.21437073 C12.46229928 10.21695209 13.45779867 11.21971831 14.453125 12.22265625 C15.47837447 13.24909817 16.50399426 14.27517034 17.52996826 15.30088806 C19.67478645 17.44726796 21.81620925 19.59695944 23.95507812 21.74926758 C26.70297877 24.51421121 29.4574703 27.27247241 32.21428299 30.02852726 C34.33001838 32.14453383 36.44314329 34.2631307 38.55538177 36.38262749 C39.57072343 37.40116006 40.58667962 38.41908039 41.6032486 39.43638802 C43.01829813 40.85359359 44.42965839 42.27447999 45.84082031 43.69555664 C46.64594055 44.50448868 47.45106079 45.31342072 48.28057861 46.14686584 C50 48 50 48 50 49 C44.39642446 49.73095971 39.22530846 50.2992741 34.20761108 47.36962891 C31.47999304 44.97914767 29.00862157 42.47241867 26.54296875 39.8125 C25.1722094 38.41414917 25.1722094 38.41414917 23.77375793 36.98754883 C21.36497598 34.5295416 18.9978237 32.03509178 16.63775635 29.53039551 C14.21447636 26.97320842 11.75313896 24.45322548 9.29492188 21.9296875 C4.49244233 16.98852307 -0.26700419 12.007737 -5 7 C-3.64062915 4.1394109 -2.35479531 2.14072301 0 0 Z " fill="#D70020" transform="translate(32,34)"/>
<path d="M0 0 C2.8605891 1.35937085 4.85927699 2.64520469 7 5 C5.471717 8.61032865 3.32836339 10.91941766 0.56616211 13.67675781 C-0.81020164 15.05773651 -0.81020164 15.05773651 -2.21437073 16.46661377 C-3.21695209 17.46229928 -4.21971831 18.45779867 -5.22265625 19.453125 C-6.24909817 20.47837447 -7.27517034 21.50399426 -8.30088806 22.52996826 C-10.44726796 24.67478645 -12.59695944 26.81620925 -14.74926758 28.95507812 C-17.51421121 31.70297877 -20.27247241 34.4574703 -23.02852726 37.21428299 C-25.14453383 39.33001838 -27.2631307 41.44314329 -29.38262749 43.55538177 C-30.40116006 44.57072343 -31.41908039 45.58667962 -32.43638802 46.6032486 C-33.85359359 48.01829813 -35.27447999 49.42965839 -36.69555664 50.84082031 C-37.50448868 51.64594055 -38.31342072 52.45106079 -39.14686584 53.28057861 C-41 55 -41 55 -42 55 C-42.73095971 49.39642446 -43.2992741 44.22530846 -40.36962891 39.20761108 C-37.97914767 36.47999304 -35.47241867 34.00862157 -32.8125 31.54296875 C-31.88026611 30.62912918 -30.94803223 29.71528961 -29.98754883 28.77375793 C-27.5295416 26.36497598 -25.03509178 23.9978237 -22.53039551 21.63775635 C-19.97320842 19.21447636 -17.45322548 16.75313896 -14.9296875 14.29492188 C-9.98852307 9.49244233 -5.007737 4.73299581 0 0 Z " fill="#D70020" transform="translate(184,27)"/>
</svg>
