<svg version="1.1" id="Layer_1" xmlns="http://www.w3.org/2000/svg" xmlns:xlink="http://www.w3.org/1999/xlink" x="0px" y="0px"
	 width="100%" viewBox="0 0 270 271" enable-background="new 0 0 270 271" xml:space="preserve">
<path fill="#333333" opacity="1.000000" stroke="none" 
	d="
M0.999999,124.000000 
	C1.000000,83.034851 1.000000,42.069706 1.000000,1.052280 
	C90.888618,1.052280 180.777267,1.052280 271.000000,1.052280 
	C271.000000,41.353615 271.000000,81.708145 270.661499,122.303772 
	C269.550140,117.841690 268.885040,113.117836 267.986481,108.438805 
	C262.960571,82.266754 249.887604,60.202106 231.648972,41.413414 
	C220.573715,30.004139 207.168320,21.303223 192.465073,14.609588 
	C173.992294,6.199880 154.537674,2.657747 134.567978,2.159712 
	C125.796852,1.940964 116.880051,3.797927 108.176437,5.475368 
	C93.240051,8.354044 79.059555,13.669999 66.325294,22.020067 
	C58.144844,27.384127 50.699879,33.869827 42.684158,39.962830 
	C42.244492,40.358307 42.045906,40.643719 41.563148,41.069607 
	C40.130348,42.447754 38.981724,43.685432 37.534092,45.076134 
	C33.826275,49.416973 30.150965,53.417587 27.054926,57.825108 
	C13.868105,76.597878 5.102843,97.123817 2.862741,120.182144 
	C2.734457,121.502625 1.643126,122.729538 0.999999,124.000000 
z"/>
<path fill="#333333" opacity="1.000000" stroke="none" 
	d="
M123.000000,272.000000 
	C82.406364,272.000000 41.812733,272.000000 1.000000,272.000000 
	C1.000000,231.646042 1.000000,191.291672 1.328007,150.678802 
	C2.089476,152.006271 2.602378,153.575394 2.943117,155.181046 
	C4.747382,163.683090 5.531357,172.549789 8.472491,180.633942 
	C16.431742,202.511139 28.201691,222.026077 46.003517,237.666611 
	C62.794102,252.418655 81.658752,262.887482 103.430565,267.980896 
	C109.912361,269.497345 116.474609,270.669891 123.000000,272.000000 
z"/>
<path fill="#333333" opacity="1.000000" stroke="none" 
	d="
M271.000000,151.000000 
	C271.000000,191.260605 271.000000,231.521194 271.000000,272.000000 
	C230.646042,272.000000 190.291672,272.000000 149.718109,271.672577 
	C167.090195,270.235687 183.358688,264.610962 199.337631,256.788727 
	C200.322220,256.219971 200.905579,255.585342 201.624313,255.209732 
	C216.702515,247.329559 229.334885,236.600586 240.180267,223.471313 
	C253.254471,207.643875 262.260376,189.907013 267.079254,170.022507 
	C268.603149,163.734268 269.704987,157.343719 271.000000,151.000000 
z"/>
<path fill="#D47273" opacity="1.000000" stroke="none" 
	d="
M271.000000,150.531342 
	C269.704987,157.343719 268.603149,163.734268 267.079254,170.022507 
	C262.260376,189.907013 253.254471,207.643875 240.180267,223.471313 
	C229.334885,236.600586 216.702515,247.329559 201.624313,255.209732 
	C200.905579,255.585342 200.322220,256.219971 199.313004,256.390259 
	C198.909698,255.515793 198.869217,254.985046 199.113129,254.214630 
	C200.809067,253.484695 202.220612,252.994415 203.638031,252.543243 
	C203.643906,252.582352 203.510986,252.642090 203.649811,252.275970 
	C205.504089,250.610123 207.174973,249.246155 208.941528,248.020065 
	C248.175430,220.789551 268.879028,183.268173 268.572296,135.555725 
	C268.321106,96.474846 252.520065,63.665565 223.142258,37.557762 
	C184.777328,3.463186 126.924583,-4.786832 80.574097,17.230612 
	C64.884819,24.683346 51.325695,34.989403 38.941547,46.809917 
	C38.509716,45.979530 38.171410,45.451321 37.833099,44.923107 
	C38.981724,43.685432 40.130348,42.447754 41.763626,40.912399 
	C42.473930,40.360733 42.699585,40.106750 42.925240,39.852768 
	C50.699879,33.869827 58.144844,27.384127 66.325294,22.020067 
	C79.059555,13.669999 93.240051,8.354044 108.176437,5.475368 
	C116.880051,3.797927 125.796852,1.940964 134.567978,2.159712 
	C154.537674,2.657747 173.992294,6.199880 192.465073,14.609588 
	C207.168320,21.303223 220.573715,30.004139 231.648972,41.413414 
	C249.887604,60.202106 262.960571,82.266754 267.986481,108.438805 
	C268.885040,113.117836 269.550140,117.841690 270.661499,122.772430 
	C271.000000,132.020889 271.000000,141.041794 271.000000,150.531342 
z"/>
<path fill="#D27173" opacity="1.000000" stroke="none" 
	d="
M198.828720,254.454300 
	C198.869217,254.985046 198.909698,255.515793 198.974823,256.445007 
	C183.358688,264.610962 167.090195,270.235687 149.249451,271.672577 
	C140.645767,272.000000 132.291534,272.000000 123.468651,272.000000 
	C116.474609,270.669891 109.912361,269.497345 103.430565,267.980896 
	C81.658752,262.887482 62.794102,252.418655 46.003517,237.666611 
	C28.201691,222.026077 16.431742,202.511139 8.472491,180.633942 
	C5.531357,172.549789 4.747382,163.683090 2.943117,155.181046 
	C2.602378,153.575394 2.089476,152.006271 1.328007,150.210144 
	C1.000000,141.645767 1.000000,133.291534 0.999999,124.468651 
	C1.643126,122.729538 2.734457,121.502625 2.862741,120.182144 
	C5.102843,97.123817 13.868105,76.597878 27.054926,57.825108 
	C30.150965,53.417587 33.826275,49.416973 37.534092,45.076134 
	C38.171410,45.451321 38.509716,45.979530 38.781731,47.096535 
	C11.341372,78.903275 -0.332732,115.121773 5.320191,156.317383 
	C15.534576,230.754608 87.985863,282.191406 161.570831,267.035217 
	C174.313324,264.410706 186.425430,258.725677 198.828720,254.454300 
z"/>
<path fill="#D27173" opacity="1.000000" stroke="none" 
	d="
M42.684158,39.962830 
	C42.699585,40.106750 42.473930,40.360733 42.047798,40.771927 
	C42.045906,40.643719 42.244492,40.358307 42.684158,39.962830 
z"/>
<path fill="#FCB7B8" opacity="1.000000" stroke="none" 
	d="
M199.113129,254.214630 
	C186.425430,258.725677 174.313324,264.410706 161.570831,267.035217 
	C87.985863,282.191406 15.534576,230.754608 5.320191,156.317383 
	C-0.332732,115.121773 11.341372,78.903275 38.875259,47.398708 
	C51.325695,34.989403 64.884819,24.683346 80.574097,17.230612 
	C126.924583,-4.786832 184.777328,3.463186 223.142258,37.557762 
	C252.520065,63.665565 268.321106,96.474846 268.572296,135.555725 
	C268.879028,183.268173 248.175430,220.789551 208.941528,248.020065 
	C207.174973,249.246155 205.504089,250.610123 203.629196,252.228638 
	C203.469742,252.547394 203.632156,252.504150 203.632156,252.504150 
	C202.220612,252.994415 200.809067,253.484695 199.113129,254.214630 
M31.522392,94.123734 
	C14.760827,139.288895 21.928291,180.414047 54.693516,215.601700 
	C81.412727,244.296356 115.701530,255.288635 154.270752,248.869461 
	C199.321472,241.371521 230.471893,215.051208 243.922592,171.606354 
	C258.620880,124.131950 246.070267,82.523895 208.153549,49.962898 
	C183.968170,29.193665 154.992798,20.793886 123.395340,24.846615 
	C80.269104,30.378035 49.859371,53.884773 31.522392,94.123734 
z"/>
<path fill="#333333" opacity="1.000000" stroke="none" 
	d="
M203.638031,252.543243 
	C203.632156,252.504150 203.469742,252.547394 203.490356,252.594742 
	C203.510986,252.642090 203.643906,252.582352 203.638031,252.543243 
z"/>
<path fill="#DB7477" opacity="1.000000" stroke="none" 
	d="
M31.672764,93.772186 
	C49.859371,53.884773 80.269104,30.378035 123.395340,24.846615 
	C154.992798,20.793886 183.968170,29.193665 208.153549,49.962898 
	C246.070267,82.523895 258.620880,124.131950 243.922592,171.606354 
	C230.471893,215.051208 199.321472,241.371521 154.270752,248.869461 
	C115.701530,255.288635 81.412727,244.296356 54.693516,215.601700 
	C21.928291,180.414047 14.760827,139.288895 31.672764,93.772186 
M179.624481,238.291031 
	C182.464539,236.894852 185.383804,235.638458 188.132675,234.081314 
	C223.243011,214.192505 243.166962,184.122849 245.849442,143.908173 
	C250.165482,79.203926 196.855515,26.602392 135.036728,27.559391 
	C85.997795,28.318548 41.393482,62.067818 30.117317,109.834686 
	C19.658577,154.138855 31.914202,192.138031 66.508331,221.813126 
	C86.618866,239.064087 110.708427,247.805420 137.458405,247.797974 
	C151.877869,247.793961 165.548645,243.694641 179.624481,238.291031 
z"/>
<path fill="#FEBBBB" opacity="1.000000" stroke="none" 
	d="
M179.270782,238.438110 
	C165.548645,243.694641 151.877869,247.793961 137.458405,247.797974 
	C110.708427,247.805420 86.618866,239.064087 66.508331,221.813126 
	C31.914202,192.138031 19.658577,154.138855 30.117317,109.834686 
	C41.393482,62.067818 85.997795,28.318548 135.036728,27.559391 
	C196.855515,26.602392 250.165482,79.203926 245.849442,143.908173 
	C243.166962,184.122849 223.243011,214.192505 188.132675,234.081314 
	C185.383804,235.638458 182.464539,236.894852 179.270782,238.438110 
M132.775146,89.518684 
	C132.779160,110.669151 132.801010,131.819641 132.761749,152.970032 
	C132.757462,155.284363 132.700653,157.671753 132.152069,159.898056 
	C130.579330,166.280624 124.533005,170.371429 117.840553,169.866104 
	C112.051254,169.428970 106.723534,164.520721 105.883621,158.850601 
	C105.063652,153.315140 109.724907,145.251465 114.798714,143.427979 
	C122.684013,140.594101 122.684174,140.594101 122.691086,132.227219 
	C122.692596,130.395294 122.694382,128.563354 122.693016,126.731422 
	C122.685539,116.722488 121.038170,115.404205 111.223953,117.565086 
	C110.574402,117.708107 109.936760,117.906082 109.295067,118.083885 
	C76.808182,127.085266 70.881958,166.377609 92.558746,185.502167 
	C103.591324,195.235764 120.268616,199.102829 133.940994,192.939407 
	C148.755722,186.261017 157.773392,175.021530 158.251022,158.213409 
	C158.534760,148.229111 158.286270,138.230133 158.320953,128.237900 
	C158.327072,126.479912 158.550049,124.722694 158.671143,122.990013 
	C165.464462,124.600960 171.673065,126.331177 177.986435,127.491356 
	C183.342606,128.475632 185.003235,126.850967 185.079514,121.497299 
	C185.143570,117.001648 184.932938,112.496849 185.142548,108.010056 
	C185.330460,103.988258 184.099991,102.154617 179.693451,101.574615 
	C170.059937,100.306641 163.074875,95.159676 159.869324,85.603905 
	C158.799652,82.415192 158.555695,77.818748 156.334793,76.437332 
	C153.646576,74.765251 149.260971,75.699158 145.610977,75.717957 
	C131.422745,75.791039 132.852600,74.033188 132.775146,89.518684 
z"/>
<path fill="#D86A6B" opacity="1.000000" stroke="none" 
	d="
M132.774933,89.023590 
	C132.852600,74.033188 131.422745,75.791039 145.610977,75.717957 
	C149.260971,75.699158 153.646576,74.765251 156.334793,76.437332 
	C158.555695,77.818748 158.799652,82.415192 159.869324,85.603905 
	C163.074875,95.159676 170.059937,100.306641 179.693451,101.574615 
	C184.099991,102.154617 185.330460,103.988258 185.142548,108.010056 
	C184.932938,112.496849 185.143570,117.001648 185.079514,121.497299 
	C185.003235,126.850967 183.342606,128.475632 177.986435,127.491356 
	C171.673065,126.331177 165.464462,124.600960 158.671143,122.990013 
	C158.550049,124.722694 158.327072,126.479912 158.320953,128.237900 
	C158.286270,138.230133 158.534760,148.229111 158.251022,158.213409 
	C157.773392,175.021530 148.755722,186.261017 133.940994,192.939407 
	C120.268616,199.102829 103.591324,195.235764 92.558746,185.502167 
	C70.881958,166.377609 76.808182,127.085266 109.295067,118.083885 
	C109.936760,117.906082 110.574402,117.708107 111.223953,117.565086 
	C121.038170,115.404205 122.685539,116.722488 122.693016,126.731422 
	C122.694382,128.563354 122.692596,130.395294 122.691086,132.227219 
	C122.684174,140.594101 122.684013,140.594101 114.798714,143.427979 
	C109.724907,145.251465 105.063652,153.315140 105.883621,158.850601 
	C106.723534,164.520721 112.051254,169.428970 117.840553,169.866104 
	C124.533005,170.371429 130.579330,166.280624 132.152069,159.898056 
	C132.700653,157.671753 132.757462,155.284363 132.761749,152.970032 
	C132.801010,131.819641 132.779160,110.669151 132.774933,89.023590 
z"/>
</svg>