<svg version="1.1" id="Layer_1" xmlns="http://www.w3.org/2000/svg" xmlns:xlink="http://www.w3.org/1999/xlink" x="0px" y="0px"
	 width="100%" viewBox="0 0 272 271" enable-background="new 0 0 272 271" xml:space="preserve">
<path fill="#333333" opacity="1.000000" stroke="none" 
	d="
M1.000000,124.000000 
	C1.000000,83.022667 1.000000,42.045338 1.000000,1.034003 
	C91.593864,1.034003 182.187744,1.034003 272.890808,1.034003 
	C272.890808,91.210472 272.890808,181.421127 272.890808,272.000000 
	C231.313156,272.000000 189.625244,272.000000 147.731689,271.675110 
	C162.289490,270.591125 176.271591,266.705719 189.843201,261.005066 
	C203.304489,255.350754 215.608398,247.745178 226.381439,238.023270 
	C247.630768,218.847260 261.323975,195.041580 267.859650,167.157700 
	C272.263062,148.370850 272.488129,129.351807 268.614838,110.616638 
	C262.856842,82.765213 249.731522,58.842598 228.782837,39.065407 
	C213.336212,24.482613 195.610367,14.490216 175.621902,8.011366 
	C159.613724,2.822644 143.092545,2.383649 126.549210,3.151963 
	C118.368484,3.531896 109.980019,4.296326 102.151497,6.524138 
	C74.777023,14.314272 51.239170,28.298357 32.776474,50.541668 
	C14.969999,71.994377 5.407937,96.664589 1.626187,123.990326 
	C1.417506,123.996155 1.000000,124.000000 1.000000,124.000000 
z"/>
<path fill="#333333" opacity="1.000000" stroke="none" 
	d="
M125.000000,272.000000 
	C83.740295,272.000000 42.480587,272.000000 1.000000,272.000000 
	C1.000000,231.646042 1.000000,191.291672 1.210430,150.470398 
	C1.420859,150.003464 1.841609,150.013657 1.891334,150.435532 
	C2.302087,152.787598 2.543043,154.749542 3.043879,156.642746 
	C6.011221,167.859695 7.964986,179.493988 12.274614,190.174896 
	C20.680872,211.008881 34.267712,228.293747 51.862400,242.476730 
	C68.553154,255.931030 87.379227,264.582581 108.235756,269.008698 
	C113.785500,270.186462 119.409882,271.012482 125.000000,272.000000 
z"/>
<path fill="#D47172" opacity="1.000000" stroke="none" 
	d="
M125.468575,272.000000 
	C119.409882,271.012482 113.785500,270.186462 108.235756,269.008698 
	C87.379227,264.582581 68.553154,255.931030 51.862400,242.476730 
	C34.267712,228.293747 20.680872,211.008881 12.274614,190.174896 
	C7.964986,179.493988 6.011221,167.859695 3.043879,156.642746 
	C2.543043,154.749542 2.302087,152.787598 1.963577,149.971039 
	C1.935686,140.717941 1.885277,132.351227 1.834868,123.984505 
	C5.407937,96.664589 14.969999,71.994377 32.776474,50.541668 
	C51.239170,28.298357 74.777023,14.314272 102.151497,6.524138 
	C109.980019,4.296326 118.368484,3.531896 126.549210,3.151963 
	C143.092545,2.383649 159.613724,2.822644 175.621902,8.011366 
	C195.610367,14.490216 213.336212,24.482613 228.782837,39.065407 
	C249.731522,58.842598 262.856842,82.765213 268.614838,110.616638 
	C272.488129,129.351807 272.263062,148.370850 267.859650,167.157700 
	C261.323975,195.041580 247.630768,218.847260 226.381439,238.023270 
	C215.608398,247.745178 203.304489,255.350754 189.843201,261.005066 
	C176.271591,266.705719 162.289490,270.591125 147.263031,271.675110 
	C139.979050,272.000000 132.958099,272.000000 125.468575,272.000000 
M81.751617,257.764771 
	C101.407074,266.686218 122.015137,270.230713 143.557739,269.266357 
	C220.416809,265.825653 279.292297,193.894638 267.291473,117.936531 
	C256.256195,48.089748 196.055450,0.266492 125.451599,5.259391 
	C58.993393,9.959122 4.205831,67.607018 4.164105,134.117630 
	C4.128504,190.865784 30.528854,231.865417 81.751617,257.764771 
z"/>
<path fill="#413A3A" opacity="1.000000" stroke="none" 
	d="
M1.626187,123.990326 
	C1.885277,132.351227 1.935686,140.717941 1.913852,149.549164 
	C1.841609,150.013657 1.420859,150.003464 1.210430,150.001740 
	C1.000000,141.645767 1.000000,133.291534 1.000000,124.468651 
	C1.000000,124.000000 1.417506,123.996155 1.626187,123.990326 
z"/>
<path fill="#FCB7B8" opacity="1.000000" stroke="none" 
	d="
M81.410858,257.604279 
	C30.528854,231.865417 4.128504,190.865784 4.164105,134.117630 
	C4.205831,67.607018 58.993393,9.959122 125.451599,5.259391 
	C196.055450,0.266492 256.256195,48.089748 267.291473,117.936531 
	C279.292297,193.894638 220.416809,265.825653 143.557739,269.266357 
	C122.015137,270.230713 101.407074,266.686218 81.410858,257.604279 
M167.881271,245.952042 
	C212.292816,231.535767 240.364838,201.598099 247.724945,155.562042 
	C255.561676,106.544754 237.098175,67.360107 195.191193,40.605270 
	C155.516129,15.275382 102.660667,18.951157 66.344383,48.077763 
	C28.096731,78.753380 13.489931,128.371689 29.105383,173.913895 
	C47.764648,228.333298 105.996330,262.613098 166.619492,246.365082 
	C166.817154,246.302460 166.991608,246.200165 167.881271,245.952042 
z"/>
<path fill="#DC7477" opacity="1.000000" stroke="none" 
	d="
M166.324844,246.420898 
	C105.996330,262.613098 47.764648,228.333298 29.105383,173.913895 
	C13.489931,128.371689 28.096731,78.753380 66.344383,48.077763 
	C102.660667,18.951157 155.516129,15.275382 195.191193,40.605270 
	C237.098175,67.360107 255.561676,106.544754 247.724945,155.562042 
	C240.364838,201.598099 212.292816,231.535767 167.368195,246.054459 
	C166.670654,246.229431 166.493896,246.317444 166.324844,246.420898 
M124.799553,247.068024 
	C131.214890,247.051941 137.630234,247.035858 144.913010,246.887589 
	C145.907547,246.788467 146.903214,246.699478 147.896454,246.588776 
	C209.036819,239.773911 252.591141,184.916321 245.369308,123.821716 
	C238.249496,63.590199 182.871658,20.610773 122.121735,28.167761 
	C78.565338,33.585957 41.578575,65.953171 30.232458,108.580299 
	C18.661465,152.052292 34.538971,198.236984 70.098686,224.827911 
	C86.185715,236.857498 104.239540,243.923157 124.799553,247.068024 
z"/>
<path fill="#E17D7D" opacity="1.000000" stroke="none" 
	d="
M166.472168,246.392990 
	C166.493896,246.317444 166.670654,246.229431 166.998962,246.107544 
	C166.991608,246.200165 166.817154,246.302460 166.472168,246.392990 
z"/>
<path fill="#FEBBBB" opacity="1.000000" stroke="none" 
	d="
M124.046341,246.730713 
	C104.239540,243.923157 86.185715,236.857498 70.098686,224.827911 
	C34.538971,198.236984 18.661465,152.052292 30.232458,108.580299 
	C41.578575,65.953171 78.565338,33.585957 122.121735,28.167761 
	C182.871658,20.610773 238.249496,63.590199 245.369308,123.821716 
	C252.591141,184.916321 209.036819,239.773911 147.896454,246.588776 
	C146.903214,246.699478 145.907547,246.788467 144.006912,246.912155 
	C136.749329,246.868057 130.397827,246.799377 124.046341,246.730713 
M111.136055,183.570618 
	C111.425011,188.072601 111.713959,192.574585 112.002914,197.076569 
	C112.550781,197.122162 113.098648,197.167770 113.646515,197.213364 
	C124.182930,187.423004 126.105766,173.415421 130.249817,160.306976 
	C131.539871,160.839066 132.176941,161.005127 132.711517,161.336517 
	C145.009140,168.960281 158.025955,167.679733 168.700409,157.438538 
	C178.453674,148.081146 181.814377,136.030548 182.123657,122.970634 
	C182.516632,106.376434 174.638779,94.648903 160.048233,87.389252 
	C152.434204,83.600845 144.132278,82.664795 135.676483,83.174995 
	C116.042854,84.359650 99.458687,96.579811 94.568802,114.300018 
	C91.315903,126.088074 91.959709,137.592010 101.663872,146.635651 
	C103.321815,148.180740 106.317200,148.290695 108.694725,149.063629 
	C109.389320,146.106613 110.217636,143.170593 110.687515,140.178299 
	C110.809937,139.398682 109.631996,138.495819 109.364609,137.560043 
	C108.192947,133.459549 106.140472,129.311234 106.202103,125.207199 
	C106.560669,101.329506 131.464218,87.997101 152.881195,97.752083 
	C159.606247,100.815193 164.539993,106.287659 165.052383,113.754135 
	C165.545090,120.934166 164.916351,128.340057 163.654526,135.446808 
	C162.546753,141.685822 159.444366,147.377167 154.131042,151.441071 
	C149.158401,155.244400 143.635742,155.878815 139.248215,153.110596 
	C134.879410,150.354172 133.740204,146.162369 135.490662,139.351852 
	C137.064590,133.228149 139.061752,127.171791 140.069901,120.955597 
	C141.111847,114.530930 138.658798,110.576500 134.077301,109.273300 
	C129.303421,107.915382 123.320602,110.302238 121.411972,115.708748 
	C119.756859,120.397087 119.679863,125.690628 119.238335,130.745773 
	C118.797440,135.793594 119.317169,140.972946 118.453407,145.926834 
	C116.311661,158.210175 113.620628,170.397720 111.136055,183.570618 
z"/>
<path fill="#EB7A7B" opacity="1.000000" stroke="none" 
	d="
M124.422943,246.899368 
	C130.397827,246.799377 136.749329,246.868057 143.573196,246.978241 
	C137.630234,247.035858 131.214890,247.051941 124.422943,246.899368 
z"/>
<path fill="#E96567" opacity="1.000000" stroke="none" 
	d="
M111.143158,183.097183 
	C113.620628,170.397720 116.311661,158.210175 118.453407,145.926834 
	C119.317169,140.972946 118.797440,135.793594 119.238335,130.745773 
	C119.679863,125.690628 119.756859,120.397087 121.411972,115.708748 
	C123.320602,110.302238 129.303421,107.915382 134.077301,109.273300 
	C138.658798,110.576500 141.111847,114.530930 140.069901,120.955597 
	C139.061752,127.171791 137.064590,133.228149 135.490662,139.351852 
	C133.740204,146.162369 134.879410,150.354172 139.248215,153.110596 
	C143.635742,155.878815 149.158401,155.244400 154.131042,151.441071 
	C159.444366,147.377167 162.546753,141.685822 163.654526,135.446808 
	C164.916351,128.340057 165.545090,120.934166 165.052383,113.754135 
	C164.539993,106.287659 159.606247,100.815193 152.881195,97.752083 
	C131.464218,87.997101 106.560669,101.329506 106.202103,125.207199 
	C106.140472,129.311234 108.192947,133.459549 109.364609,137.560043 
	C109.631996,138.495819 110.809937,139.398682 110.687515,140.178299 
	C110.217636,143.170593 109.389320,146.106613 108.694733,149.063629 
	C106.317200,148.290695 103.321815,148.180740 101.663872,146.635651 
	C91.959709,137.592010 91.315903,126.088074 94.568802,114.300018 
	C99.458687,96.579811 116.042854,84.359650 135.676483,83.174995 
	C144.132278,82.664795 152.434204,83.600845 160.048233,87.389252 
	C174.638779,94.648903 182.516632,106.376434 182.123657,122.970634 
	C181.814377,136.030548 178.453674,148.081146 168.700409,157.438538 
	C158.025955,167.679733 145.009140,168.960281 132.711517,161.336517 
	C132.176941,161.005127 131.539871,160.839066 130.249817,160.306976 
	C126.105766,173.415421 124.182930,187.423004 113.646515,197.213364 
	C113.098648,197.167770 112.550781,197.122162 112.002914,197.076569 
	C111.713959,192.574585 111.425011,188.072601 111.143158,183.097183 
z"/>
</svg>