<svg version="1.1" id="Layer_1" xmlns="http://www.w3.org/2000/svg" xmlns:xlink="http://www.w3.org/1999/xlink" x="0px" y="0px"
	 width="100%" viewBox="0 0 265 263" enable-background="new 0 0 265 263" xml:space="preserve">
<path fill="#FDBBBB" opacity="1.000000" stroke="none" 
	d="
M153.000000,264.000000 
	C139.645767,264.000000 126.291542,264.000000 112.422943,263.602997 
	C110.250511,262.829895 108.591797,262.456726 106.934517,262.077240 
	C76.415672,255.089310 50.084846,241.033554 30.501606,216.019852 
	C14.781023,195.939896 5.346642,172.994553 3.032327,147.676529 
	C0.687392,122.023506 4.306600,97.027428 15.950886,73.658714 
	C28.442633,48.589252 46.951057,29.402525 72.128716,16.852901 
	C89.377502,8.255365 107.503479,3.075729 126.896584,2.729017 
	C127.941025,2.710345 128.965973,1.601412 130.000000,1.000001 
	C131.714355,1.000000 133.428711,1.000000 135.478729,1.419424 
	C137.029114,2.161422 138.225739,2.626032 139.461502,2.783623 
	C147.752487,3.840934 156.240891,4.046704 164.314301,5.988107 
	C192.746109,12.825078 217.227066,26.619732 235.427338,49.938385 
	C261.572754,83.436523 269.555664,121.352104 261.068756,162.765671 
	C256.182709,186.608093 245.138641,207.496765 228.346649,225.049301 
	C210.385208,243.824265 188.115311,255.221451 162.945724,261.184418 
	C159.596130,261.977966 156.313583,263.054504 153.000000,264.000000 
M195.867783,38.615788 
	C165.052322,18.873705 131.695801,13.732677 97.410782,25.856012 
	C53.162025,41.502575 27.046053,73.362701 20.814405,120.525337 
	C17.748608,143.728043 21.980043,165.727600 32.857304,186.270920 
	C54.594006,227.323898 99.557404,251.579453 146.322906,246.064545 
	C171.162811,243.135254 192.990799,233.356766 210.878876,216.161850 
	C237.658691,190.419769 249.860596,158.689545 245.993393,121.419357 
	C242.350418,86.310051 225.186295,59.150822 195.867783,38.615788 
z"/>
<path fill="#353434" opacity="1.000000" stroke="none" 
	d="
M153.468658,264.000000 
	C156.313583,263.054504 159.596130,261.977966 162.945724,261.184418 
	C188.115311,255.221451 210.385208,243.824265 228.346649,225.049301 
	C245.138641,207.496765 256.182709,186.608093 261.068756,162.765671 
	C269.555664,121.352104 261.572754,83.436523 235.427338,49.938385 
	C217.227066,26.619732 192.746109,12.825078 164.314301,5.988107 
	C156.240891,4.046704 147.752487,3.840934 139.461502,2.783623 
	C138.225739,2.626032 137.029114,2.161422 135.907196,1.419424 
	C179.295837,1.000000 222.591675,1.000000 265.943756,1.000000 
	C265.943756,88.553291 265.943756,176.106628 265.943756,264.000000 
	C228.646454,264.000000 191.291885,264.000000 153.468658,264.000000 
z"/>
<path fill="#353434" opacity="1.000000" stroke="none" 
	d="
M129.531342,1.000001 
	C128.965973,1.601412 127.941025,2.710345 126.896584,2.729017 
	C107.503479,3.075729 89.377502,8.255365 72.128716,16.852901 
	C46.951057,29.402525 28.442633,48.589252 15.950886,73.658714 
	C4.306600,97.027428 0.687392,122.023506 3.032327,147.676529 
	C5.346642,172.994553 14.781023,195.939896 30.501606,216.019852 
	C50.084846,241.033554 76.415672,255.089310 106.934517,262.077240 
	C108.591797,262.456726 110.250511,262.829895 111.954285,263.602997 
	C75.032188,264.000000 38.064384,264.000000 1.048288,264.000000 
	C1.048288,176.441818 1.048288,88.883614 1.048288,1.000000 
	C43.687012,1.000000 86.374847,1.000000 129.531342,1.000001 
z"/>
<path fill="#DC7577" opacity="1.000000" stroke="none" 
	d="
M196.159790,38.827835 
	C225.186295,59.150822 242.350418,86.310051 245.993393,121.419357 
	C249.860596,158.689545 237.658691,190.419769 210.878876,216.161850 
	C192.990799,233.356766 171.162811,243.135254 146.322906,246.064545 
	C99.557404,251.579453 54.594006,227.323898 32.857304,186.270920 
	C21.980043,165.727600 17.748608,143.728043 20.814405,120.525337 
	C27.046053,73.362701 53.162025,41.502575 97.410782,25.856012 
	C131.695801,13.732677 165.052322,18.873705 196.159790,38.827835 
M185.567474,36.920128 
	C164.432007,25.153759 141.743851,21.523085 117.992172,24.736322 
	C96.513107,27.642107 77.715073,36.533371 61.252449,50.822124 
	C39.852909,69.395882 27.441299,92.869766 24.291002,120.593956 
	C20.906658,150.377884 28.384483,177.768204 47.495556,201.423050 
	C68.565216,227.502136 95.999367,241.414703 129.387711,242.956726 
	C152.292130,244.014557 173.526871,238.074890 192.763474,225.336929 
	C224.288330,204.462082 240.784592,174.926926 242.940826,137.430847 
	C244.032654,118.444626 239.807785,100.355064 231.041916,83.447159 
	C220.744156,63.584496 205.874283,48.089405 185.567474,36.920128 
z"/>
<path fill="#FEBBBC" opacity="1.000000" stroke="none" 
	d="
M185.879425,37.116089 
	C205.874283,48.089405 220.744156,63.584496 231.041916,83.447159 
	C239.807785,100.355064 244.032654,118.444626 242.940826,137.430847 
	C240.784592,174.926926 224.288330,204.462082 192.763474,225.336929 
	C173.526871,238.074890 152.292130,244.014557 129.387711,242.956726 
	C95.999367,241.414703 68.565216,227.502136 47.495556,201.423050 
	C28.384483,177.768204 20.906658,150.377884 24.291002,120.593956 
	C27.441299,92.869766 39.852909,69.395882 61.252449,50.822124 
	C77.715073,36.533371 96.513107,27.642107 117.992172,24.736322 
	C141.743851,21.523085 164.432007,25.153759 185.879425,37.116089 
M139.230591,138.967331 
	C140.227341,138.903610 141.223419,138.799225 142.220963,138.782318 
	C155.351822,138.559540 155.351868,138.562622 157.457489,125.953613 
	C158.757797,118.167038 158.732834,118.137413 150.861771,118.130516 
	C150.528534,118.130226 150.195297,118.130470 149.862061,118.130417 
	C138.776352,118.128571 138.776337,118.128571 138.905548,106.993584 
	C139.004974,98.422821 141.295090,96.185196 150.010376,96.049225 
	C159.874435,95.895332 158.979324,97.617157 159.014084,86.934471 
	C159.041260,78.579178 159.037186,77.907021 150.933670,77.731071 
	C144.119705,77.583122 136.710434,77.881424 130.554031,80.400246 
	C119.877731,84.768311 117.931915,94.895538 117.921707,105.434235 
	C117.909584,117.952072 117.846748,117.952110 105.559998,118.142136 
	C105.226822,118.147285 104.890938,118.172417 104.560707,118.141418 
	C101.278854,117.833382 99.995720,119.423325 100.227242,122.581497 
	C100.324417,123.907097 100.248245,125.246292 100.232994,126.579102 
	C100.062187,141.504181 100.593246,138.700134 112.279259,138.669815 
	C116.560265,138.658722 118.107132,139.731247 118.012138,144.253235 
	C117.732231,157.576797 117.857193,170.910812 118.003075,184.238770 
	C118.019829,185.769073 119.152351,188.598175 119.796654,188.606628 
	C125.862373,188.686234 131.934433,188.283310 138.181915,187.091614 
	C138.234222,171.073074 138.286514,155.054550 139.230591,138.967331 
z"/>
<path fill="#EA6366" opacity="1.000000" stroke="none" 
	d="
M138.004669,188.019669 
	C131.934433,188.283310 125.862373,188.686234 119.796654,188.606628 
	C119.152351,188.598175 118.019829,185.769073 118.003075,184.238770 
	C117.857193,170.910812 117.732231,157.576797 118.012138,144.253235 
	C118.107132,139.731247 116.560265,138.658722 112.279259,138.669815 
	C100.593246,138.700134 100.062187,141.504181 100.232994,126.579102 
	C100.248245,125.246292 100.324417,123.907097 100.227242,122.581497 
	C99.995720,119.423325 101.278854,117.833382 104.560707,118.141418 
	C104.890938,118.172417 105.226822,118.147285 105.559998,118.142136 
	C117.846748,117.952110 117.909584,117.952072 117.921707,105.434235 
	C117.931915,94.895538 119.877731,84.768311 130.554031,80.400246 
	C136.710434,77.881424 144.119705,77.583122 150.933670,77.731071 
	C159.037186,77.907021 159.041260,78.579178 159.014084,86.934471 
	C158.979324,97.617157 159.874435,95.895332 150.010376,96.049225 
	C141.295090,96.185196 139.004974,98.422821 138.905548,106.993584 
	C138.776337,118.128571 138.776352,118.128571 149.862061,118.130417 
	C150.195297,118.130470 150.528534,118.130226 150.861771,118.130516 
	C158.732834,118.137413 158.757797,118.167038 157.457489,125.953613 
	C155.351868,138.562622 155.351822,138.559540 142.220963,138.782318 
	C141.223419,138.799225 140.227341,138.903610 138.447845,139.269745 
	C137.448807,140.356796 137.046204,141.140884 137.043884,141.926163 
	C137.001572,156.214066 136.985794,170.502213 137.046219,184.789948 
	C137.050781,185.867844 137.670761,186.943161 138.004669,188.019669 
z"/>
<path fill="#D95D5F" opacity="1.000000" stroke="none" 
	d="
M138.093292,187.555634 
	C137.670761,186.943161 137.050781,185.867844 137.046219,184.789948 
	C136.985794,170.502213 137.001572,156.214066 137.043884,141.926163 
	C137.046204,141.140884 137.448807,140.356796 138.001953,139.304077 
	C138.286514,155.054550 138.234222,171.073074 138.093292,187.555634 
z"/>
</svg>