<svg version="1.1" id="Layer_1" xmlns="http://www.w3.org/2000/svg" xmlns:xlink="http://www.w3.org/1999/xlink" x="0px" y="0px"
	 width="100%" viewBox="0 0 271 271" enable-background="new 0 0 271 271" xml:space="preserve">
<path fill="#F8B0B1" opacity="1.000000" stroke="none" 
	d="
M146.000000,272.000000 
	C139.312363,272.000000 132.624710,272.000000 125.318085,271.590515 
	C114.449753,269.362671 103.884239,268.562714 94.021011,265.500641 
	C76.796761,260.153290 60.972546,251.503159 47.408001,239.500641 
	C25.591434,220.196304 10.881528,196.406631 4.324905,167.826157 
	C3.192428,162.889664 2.107107,157.942322 1.000001,153.000000 
	C1.000000,142.645767 1.000000,132.291550 1.406737,121.328857 
	C2.060223,118.270912 1.960816,115.724358 2.615619,113.389290 
	C5.026489,104.791992 7.413226,96.170639 10.312534,87.731300 
	C15.925029,71.394386 25.153091,56.994133 37.249207,44.942432 
	C46.225204,35.999397 56.259129,27.615475 67.139885,21.227659 
	C78.120461,14.781241 90.364296,9.610316 102.717712,6.615881 
	C116.068642,3.379649 129.947235,0.635468 144.089279,3.266506 
	C152.129166,4.762276 160.575287,4.491167 168.408447,6.607429 
	C197.899323,14.574896 222.820740,29.753057 241.684952,54.361946 
	C258.064392,75.729408 267.159698,99.891266 269.603333,126.418457 
	C270.934143,140.865479 270.184540,155.578857 265.719910,169.520996 
	C261.966034,181.243576 257.534698,192.891434 252.011307,203.872208 
	C243.489700,220.813568 230.895050,234.628525 215.351822,245.593613 
	C197.628098,258.096954 178.319595,266.829590 156.660782,269.894806 
	C153.079590,270.401611 149.552231,271.288666 146.000000,272.000000 
M162.894409,246.237686 
	C164.684326,245.902939 166.520065,245.723267 168.257202,245.209885 
	C189.597107,238.903320 207.147049,226.996902 221.682297,210.125443 
	C250.678925,176.468262 256.901611,125.541565 236.392380,86.089279 
	C215.383682,45.676243 171.552429,19.724691 124.329185,24.693325 
	C98.094124,27.453671 75.434418,37.631062 56.792213,55.882225 
	C30.894737,81.236458 19.341402,112.381027 22.921036,148.616501 
	C26.057432,180.365219 40.522873,206.198593 65.428207,226.045578 
	C88.332275,244.297729 114.714531,251.806152 143.749237,249.899963 
	C149.903488,249.495926 155.950867,247.464264 161.997696,246.110336 
	C161.997696,246.110336 162.073547,246.122772 162.894409,246.237686 
z"/>
<path fill="#333333" opacity="1.000000" stroke="none" 
	d="
M146.468658,272.000000 
	C149.552231,271.288666 153.079590,270.401611 156.660782,269.894806 
	C178.319595,266.829590 197.628098,258.096954 215.351822,245.593613 
	C230.895050,234.628525 243.489700,220.813568 252.011307,203.872208 
	C257.534698,192.891434 261.966034,181.243576 265.719910,169.520996 
	C270.184540,155.578857 270.934143,140.865479 269.603333,126.418457 
	C267.159698,99.891266 258.064392,75.729408 241.684952,54.361946 
	C222.820740,29.753057 197.899323,14.574896 168.408447,6.607429 
	C160.575287,4.491167 152.129166,4.762276 144.089279,3.266506 
	C129.947235,0.635468 116.068642,3.379649 102.717712,6.615881 
	C90.364296,9.610316 78.120461,14.781241 67.139885,21.227659 
	C56.259129,27.615475 46.225204,35.999397 37.249207,44.942432 
	C25.153091,56.994133 15.925029,71.394386 10.312534,87.731300 
	C7.413226,96.170639 5.026489,104.791992 2.615619,113.389290 
	C1.960816,115.724358 2.060223,118.270912 1.406737,120.860199 
	C1.000000,81.022224 1.000000,41.044445 1.000000,1.033334 
	C91.260918,1.033334 181.521851,1.033334 271.891388,1.033334 
	C271.891388,91.210617 271.891388,181.421417 271.891388,272.000000 
	C230.313156,272.000000 188.625244,272.000000 146.468658,272.000000 
z"/>
<path fill="#333333" opacity="1.000000" stroke="none" 
	d="
M1.000001,153.468658 
	C2.107107,157.942322 3.192428,162.889664 4.324905,167.826157 
	C10.881528,196.406631 25.591434,220.196304 47.408001,239.500641 
	C60.972546,251.503159 76.796761,260.153290 94.021011,265.500641 
	C103.884239,268.562714 114.449753,269.362671 124.849548,271.590515 
	C83.741203,272.000000 42.482403,272.000000 1.000000,272.000000 
	C1.000000,232.646057 1.000000,193.291687 1.000001,153.468658 
z"/>
<path fill="#DB7477" opacity="1.000000" stroke="none" 
	d="
M162.047485,246.182526 
	C155.950867,247.464264 149.903488,249.495926 143.749237,249.899963 
	C114.714531,251.806152 88.332275,244.297729 65.428207,226.045578 
	C40.522873,206.198593 26.057432,180.365219 22.921036,148.616501 
	C19.341402,112.381027 30.894737,81.236458 56.792213,55.882225 
	C75.434418,37.631062 98.094124,27.453671 124.329185,24.693325 
	C171.552429,19.724691 215.383682,45.676243 236.392380,86.089279 
	C256.901611,125.541565 250.678925,176.468262 221.682297,210.125443 
	C207.147049,226.996902 189.597107,238.903320 168.257202,245.209885 
	C166.520065,245.723267 164.684326,245.902939 162.467255,245.830750 
	C162.029861,244.962219 162.019638,244.500626 162.363297,243.935638 
	C175.622070,239.699371 188.079666,234.638321 199.075592,226.492462 
	C228.065231,205.016724 243.936020,176.319611 244.919846,140.227005 
	C245.864182,105.582756 232.684357,76.687469 206.528748,53.858597 
	C191.497330,40.739033 174.065689,32.260506 154.422226,29.107368 
	C129.210236,25.060379 105.060577,28.519541 82.429337,41.074913 
	C44.239616,62.261826 21.420485,103.390060 26.206528,148.322495 
	C30.024065,184.162354 47.894211,211.780991 78.408478,230.960083 
	C92.331726,239.711243 107.785500,244.519836 124.333496,247.119675 
	C132.080475,247.207336 139.523666,247.006638 147.259277,246.662277 
	C151.622314,245.950760 155.692963,245.382889 160.057495,244.972900 
	C160.916763,245.481369 161.482132,245.831955 162.047485,246.182526 
z"/>
<path fill="#FEBBBB" opacity="1.000000" stroke="none" 
	d="
M159.763596,244.815033 
	C155.692963,245.382889 151.622314,245.950760 146.792328,246.665680 
	C138.698563,246.818924 131.364136,246.825119 124.029716,246.831314 
	C107.785500,244.519836 92.331726,239.711243 78.408478,230.960083 
	C47.894211,211.780991 30.024065,184.162354 26.206528,148.322495 
	C21.420485,103.390060 44.239616,62.261826 82.429337,41.074913 
	C105.060577,28.519541 129.210236,25.060379 154.422226,29.107368 
	C174.065689,32.260506 191.497330,40.739033 206.528748,53.858597 
	C232.684357,76.687469 245.864182,105.582756 244.919846,140.227005 
	C243.936020,176.319611 228.065231,205.016724 199.075592,226.492462 
	C188.079666,234.638321 175.622070,239.699371 162.057495,243.940903 
	C160.853073,244.304749 160.308334,244.559891 159.763596,244.815033 
M99.622826,96.955742 
	C98.623863,96.992760 97.623421,97.006645 96.626160,97.070328 
	C84.582985,97.839386 80.609825,100.945770 78.618294,112.926399 
	C75.787193,129.957657 75.939651,147.074783 78.979858,164.105499 
	C80.287437,171.430389 84.046997,175.686462 91.562180,176.132004 
	C109.153885,177.174927 126.787025,177.842514 144.407913,177.954987 
	C156.027603,178.029144 167.686478,177.215363 179.268082,176.149811 
	C186.920898,175.445724 190.595306,171.233093 191.904556,163.520889 
	C194.598846,147.649948 194.756317,131.698685 192.796051,115.761215 
	C191.042038,101.500793 186.246872,97.396912 171.966278,96.984291 
	C162.816711,96.719917 153.668716,96.083649 144.521835,96.116882 
	C129.874161,96.170105 115.227982,96.640564 99.622826,96.955742 
z"/>
<path fill="#EE7778" opacity="1.000000" stroke="none" 
	d="
M124.333496,247.119675 
	C131.364136,246.825119 138.698563,246.818924 146.499939,246.809326 
	C139.523666,247.006638 132.080475,247.207336 124.333496,247.119675 
z"/>
<path fill="#E27C7E" opacity="1.000000" stroke="none" 
	d="
M160.057495,244.972900 
	C160.308334,244.559891 160.853073,244.304749 161.703613,244.044312 
	C162.019638,244.500626 162.029861,244.962219 162.056824,245.773285 
	C162.073547,246.122772 161.997696,246.110336 162.022583,246.146423 
	C161.482132,245.831955 160.916763,245.481369 160.057495,244.972900 
z"/>
<path fill="#E96264" opacity="1.000000" stroke="none" 
	d="
M100.101997,96.945206 
	C115.227982,96.640564 129.874161,96.170105 144.521835,96.116882 
	C153.668716,96.083649 162.816711,96.719917 171.966278,96.984291 
	C186.246872,97.396912 191.042038,101.500793 192.796051,115.761215 
	C194.756317,131.698685 194.598846,147.649948 191.904556,163.520889 
	C190.595306,171.233093 186.920898,175.445724 179.268082,176.149811 
	C167.686478,177.215363 156.027603,178.029144 144.407913,177.954987 
	C126.787025,177.842514 109.153885,177.174927 91.562180,176.132004 
	C84.046997,175.686462 80.287437,171.430389 78.979858,164.105499 
	C75.939651,147.074783 75.787193,129.957657 78.618294,112.926399 
	C80.609825,100.945770 84.582985,97.839386 96.626160,97.070328 
	C97.623421,97.006645 98.623863,96.992760 100.101997,96.945206 
M148.287216,140.761017 
	C150.823486,139.370621 153.359756,137.980225 157.203659,135.872971 
	C144.609207,129.365158 133.332962,123.538483 121.359245,117.351410 
	C121.359245,130.334518 121.359245,141.866821 121.359245,154.464920 
	C130.604965,149.758514 139.115814,145.426178 148.287216,140.761017 
z"/>
<path fill="#FDB7B8" opacity="1.000000" stroke="none" 
	d="
M147.956940,140.927429 
	C139.115814,145.426178 130.604965,149.758514 121.359245,154.464920 
	C121.359245,141.866821 121.359245,130.334518 121.359245,117.351410 
	C133.332962,123.538483 144.609207,129.365158 157.203659,135.872971 
	C153.359756,137.980225 150.823486,139.370621 147.956940,140.927429 
z"/>
</svg>