<svg version="1.1" id="Layer_1" xmlns="http://www.w3.org/2000/svg" xmlns:xlink="http://www.w3.org/1999/xlink" x="0px" y="0px"
	 width="100%" viewBox="0 0 270 271" enable-background="new 0 0 270 271" xml:space="preserve">
<path fill="#333333" opacity="1.000000" stroke="none" 
	d="
M0.999998,124.000000 
	C1.000000,83.034851 1.000000,42.069706 1.000000,1.052280 
	C90.888618,1.052280 180.777267,1.052280 271.000000,1.052280 
	C271.000000,41.353615 271.000000,81.708145 270.661499,122.303772 
	C269.550140,117.841690 268.885040,113.117836 267.986481,108.438805 
	C262.960571,82.266754 249.887604,60.202106 231.648972,41.413414 
	C220.573715,30.004139 207.168320,21.303223 192.465073,14.609588 
	C173.992294,6.199880 154.537674,2.657747 134.567978,2.159712 
	C125.796852,1.940964 116.880051,3.797927 108.176437,5.475368 
	C93.240051,8.354044 79.059555,13.669999 66.325294,22.020067 
	C58.144844,27.384127 50.699879,33.869827 42.684158,39.962830 
	C42.244492,40.358307 42.045906,40.643719 41.563232,41.069519 
	C40.131142,42.447075 38.983135,43.684242 37.535873,45.074570 
	C33.827446,49.415470 30.151371,53.415737 27.055458,57.823498 
	C13.869302,76.597069 5.102704,97.123093 2.862745,120.182045 
	C2.734469,121.502548 1.643126,122.729500 0.999998,124.000000 
z"/>
<path fill="#333333" opacity="1.000000" stroke="none" 
	d="
M123.000000,272.000000 
	C82.406364,272.000000 41.812733,272.000000 1.000000,272.000000 
	C1.000000,231.646042 1.000000,191.291672 1.328007,150.678802 
	C2.089476,152.006271 2.602378,153.575394 2.943117,155.181046 
	C4.747382,163.683090 5.531357,172.549789 8.472491,180.633942 
	C16.431742,202.511139 28.201691,222.026077 46.003517,237.666611 
	C62.794102,252.418655 81.658752,262.887482 103.430565,267.980896 
	C109.912361,269.497345 116.474609,270.669891 123.000000,272.000000 
z"/>
<path fill="#333333" opacity="1.000000" stroke="none" 
	d="
M271.000000,151.000000 
	C271.000000,191.260605 271.000000,231.521194 271.000000,272.000000 
	C230.646042,272.000000 190.291672,272.000000 149.718109,271.672577 
	C167.090195,270.235687 183.358688,264.610962 199.337631,256.788727 
	C200.322220,256.219971 200.905579,255.585342 201.624313,255.209732 
	C216.702515,247.329559 229.334885,236.600586 240.180267,223.471313 
	C253.254471,207.643875 262.260376,189.907013 267.079254,170.022507 
	C268.603149,163.734268 269.704987,157.343719 271.000000,151.000000 
z"/>
<path fill="#D47273" opacity="1.000000" stroke="none" 
	d="
M271.000000,150.531342 
	C269.704987,157.343719 268.603149,163.734268 267.079254,170.022507 
	C262.260376,189.907013 253.254471,207.643875 240.180267,223.471313 
	C229.334885,236.600586 216.702515,247.329559 201.624313,255.209732 
	C200.905579,255.585342 200.322220,256.219971 199.313004,256.390259 
	C198.909698,255.515793 198.869217,254.985046 199.113129,254.214630 
	C200.809067,253.484695 202.220612,252.994415 203.638031,252.543243 
	C203.643906,252.582352 203.510986,252.642090 203.649811,252.275970 
	C205.504089,250.610123 207.174973,249.246155 208.941528,248.020065 
	C248.175430,220.789551 268.879028,183.268173 268.572296,135.555725 
	C268.321106,96.474846 252.520065,63.665565 223.142258,37.557762 
	C184.777328,3.463186 126.924583,-4.786832 80.574097,17.230612 
	C64.884819,24.683346 51.325695,34.989403 38.941696,46.809826 
	C38.510590,45.978844 38.172859,45.450127 37.835129,44.921410 
	C38.983135,43.684242 40.131142,42.447075 41.763714,40.912315 
	C42.473930,40.360733 42.699585,40.106750 42.925240,39.852768 
	C50.699879,33.869827 58.144844,27.384127 66.325294,22.020067 
	C79.059555,13.669999 93.240051,8.354044 108.176437,5.475368 
	C116.880051,3.797927 125.796852,1.940964 134.567978,2.159712 
	C154.537674,2.657747 173.992294,6.199880 192.465073,14.609588 
	C207.168320,21.303223 220.573715,30.004139 231.648972,41.413414 
	C249.887604,60.202106 262.960571,82.266754 267.986481,108.438805 
	C268.885040,113.117836 269.550140,117.841690 270.661499,122.772430 
	C271.000000,132.020889 271.000000,141.041794 271.000000,150.531342 
z"/>
<path fill="#D27173" opacity="1.000000" stroke="none" 
	d="
M37.535873,45.074570 
	C38.172859,45.450127 38.510590,45.978844 38.781883,47.096443 
	C11.341372,78.903275 -0.332732,115.121773 5.320191,156.317383 
	C15.534576,230.754608 87.985863,282.191406 161.570831,267.035217 
	C174.313324,264.410706 186.425430,258.725677 198.828720,254.454300 
	C198.869217,254.985046 198.909698,255.515793 198.974823,256.445007 
	C183.358688,264.610962 167.090195,270.235687 149.249451,271.672577 
	C140.645767,272.000000 132.291534,272.000000 123.468651,272.000000 
	C116.474609,270.669891 109.912361,269.497345 103.430565,267.980896 
	C81.658752,262.887482 62.794102,252.418655 46.003517,237.666611 
	C28.201691,222.026077 16.431742,202.511139 8.472491,180.633942 
	C5.531357,172.549789 4.747382,163.683090 2.943117,155.181046 
	C2.602378,153.575394 2.089476,152.006271 1.328007,150.210144 
	C1.000000,141.645767 1.000000,133.291534 0.999998,124.468651 
	C1.643126,122.729500 2.734469,121.502548 2.862745,120.182045 
	C5.102704,97.123093 13.869302,76.597069 27.055458,57.823498 
	C30.151371,53.415737 33.827446,49.415470 37.535873,45.074570 
z"/>
<path fill="#D27173" opacity="1.000000" stroke="none" 
	d="
M42.684158,39.962830 
	C42.699585,40.106750 42.473930,40.360733 42.047798,40.771927 
	C42.045906,40.643719 42.244492,40.358307 42.684158,39.962830 
z"/>
<path fill="#FCB7B8" opacity="1.000000" stroke="none" 
	d="
M199.113129,254.214630 
	C186.425430,258.725677 174.313324,264.410706 161.570831,267.035217 
	C87.985863,282.191406 15.534576,230.754608 5.320191,156.317383 
	C-0.332732,115.121773 11.341372,78.903275 38.875259,47.398708 
	C51.325695,34.989403 64.884819,24.683346 80.574097,17.230612 
	C126.924583,-4.786832 184.777328,3.463186 223.142258,37.557762 
	C252.520065,63.665565 268.321106,96.474846 268.572296,135.555725 
	C268.879028,183.268173 248.175430,220.789551 208.941528,248.020065 
	C207.174973,249.246155 205.504089,250.610123 203.629196,252.228638 
	C203.469742,252.547394 203.632156,252.504150 203.632156,252.504150 
	C202.220612,252.994415 200.809067,253.484695 199.113129,254.214630 
M39.427956,196.052170 
	C43.621353,201.634827 47.488171,207.501785 52.060566,212.754532 
	C84.362389,249.862549 136.603088,260.201691 180.301392,241.705734 
	C227.454666,221.747406 254.362839,174.847107 248.874741,124.168198 
	C242.350266,63.919136 186.849609,18.721516 126.208313,24.273296 
	C43.145210,31.877823 -3.490090,123.439400 39.427956,196.052170 
z"/>
<path fill="#333333" opacity="1.000000" stroke="none" 
	d="
M203.638031,252.543243 
	C203.632156,252.504150 203.469742,252.547394 203.490356,252.594742 
	C203.510986,252.642090 203.643906,252.582352 203.638031,252.543243 
z"/>
<path fill="#DB7477" opacity="1.000000" stroke="none" 
	d="
M39.226173,195.749161 
	C-3.490090,123.439400 43.145210,31.877823 126.208313,24.273296 
	C186.849609,18.721516 242.350266,63.919136 248.874741,124.168198 
	C254.362839,174.847107 227.454666,221.747406 180.301392,241.705734 
	C136.603088,260.201691 84.362389,249.862549 52.060566,212.754532 
	C47.488171,207.501785 43.621353,201.634827 39.226173,195.749161 
M215.379547,61.143997 
	C206.389359,54.344006 198.068100,46.332035 188.300308,40.940933 
	C125.442596,6.248066 45.474354,41.731525 29.685518,111.695953 
	C19.851393,155.273514 32.477005,192.623337 66.433640,221.794922 
	C85.459442,238.139679 108.242508,246.567078 133.408340,247.820511 
	C148.226761,248.558548 162.264374,244.689209 176.041641,239.680435 
	C215.587921,225.303207 245.117905,183.823959 246.118469,141.747299 
	C246.852448,110.881760 236.730209,84.278290 215.379547,61.143997 
z"/>
<path fill="#FEBBBB" opacity="1.000000" stroke="none" 
	d="
M215.623566,61.397141 
	C236.730209,84.278290 246.852448,110.881760 246.118469,141.747299 
	C245.117905,183.823959 215.587921,225.303207 176.041641,239.680435 
	C162.264374,244.689209 148.226761,248.558548 133.408340,247.820511 
	C108.242508,246.567078 85.459442,238.139679 66.433640,221.794922 
	C32.477005,192.623337 19.851393,155.273514 29.685518,111.695953 
	C45.474354,41.731525 125.442596,6.248066 188.300308,40.940933 
	C198.068100,46.332035 206.389359,54.344006 215.623566,61.397141 
M87.418777,92.287819 
	C86.655724,93.527420 85.892662,94.767021 84.954300,96.329803 
	C84.954300,96.329803 84.878098,96.689499 84.321640,97.120026 
	C83.145668,101.388535 81.969696,105.657043 80.534378,110.839714 
	C80.379601,117.234390 80.224823,123.629066 79.760910,130.752747 
	C79.863655,134.493286 79.966400,138.233810 79.969482,142.910492 
	C80.250763,150.260849 80.532051,157.611221 80.615486,165.687195 
	C81.334679,167.979309 82.053864,170.271408 82.724106,173.237808 
	C83.182167,174.492493 83.640228,175.747162 84.223358,177.663376 
	C85.485718,179.408112 86.748077,181.152832 88.228477,183.089020 
	C88.228477,183.089020 88.503632,183.181137 88.812805,183.815628 
	C92.853210,186.272293 96.893608,188.728973 101.421013,191.487732 
	C101.979492,191.594299 102.537971,191.700851 103.676613,192.245422 
	C105.118057,192.405807 106.559502,192.566177 108.678841,192.853302 
	C109.138008,192.858917 109.597183,192.864532 110.776627,193.245300 
	C120.849419,193.389969 130.922211,193.534637 141.791534,193.800888 
	C142.861237,193.756927 143.930923,193.712967 145.920456,193.847031 
	C151.592270,193.519150 157.264084,193.191269 163.795837,192.924805 
	C165.203964,192.704727 166.612106,192.484665 168.726196,192.370407 
	C172.862274,190.278549 176.998337,188.186691 181.059143,186.072647 
	C181.059143,186.072647 181.095993,186.141922 181.713074,185.936752 
	C182.578964,184.997025 183.444870,184.057312 184.654129,182.912704 
	C184.868195,182.742218 185.024780,182.529449 185.697021,181.904495 
	C187.315964,178.601349 188.934921,175.298218 190.776306,171.345535 
	C190.842865,170.893539 190.909439,170.441559 191.271988,169.545609 
	C191.331451,169.030441 191.390900,168.515274 191.662125,167.323135 
	C191.710220,166.853851 191.758316,166.384583 192.187347,165.202728 
	C192.365082,164.225128 192.694992,163.247955 192.697845,162.269852 
	C192.744919,146.146698 192.770584,130.023361 192.728455,113.900253 
	C192.725098,112.613022 192.189865,111.327187 191.943787,109.272339 
	C191.816498,108.516541 191.689194,107.760742 191.667923,106.385880 
	C191.428772,105.599281 191.189606,104.812683 190.895309,103.343521 
	C190.749100,102.912834 190.602890,102.482147 190.447678,101.354424 
	C188.356598,98.167038 186.265518,94.979660 184.114365,91.904381 
	C184.114365,91.904381 184.212845,91.823898 184.015442,91.202652 
	C183.057358,90.344635 182.099274,89.486618 180.867447,88.140633 
	C180.068588,87.705490 179.269745,87.270348 178.123596,86.308449 
	C177.415192,85.915527 176.706802,85.522614 175.546814,84.913963 
	C175.218231,84.878128 174.889664,84.842300 174.188324,84.299011 
	C173.458771,83.970192 172.729218,83.641365 171.257050,82.972992 
	C164.680695,82.301437 158.098938,81.020874 151.529083,81.079369 
	C135.632736,81.220894 119.741959,81.986877 103.136208,82.430382 
	C100.003212,83.918289 96.870216,85.406197 93.227127,87.034012 
	C92.820610,87.360535 92.414101,87.687065 91.369743,88.179260 
	C90.233536,89.445824 89.097321,90.712387 87.998390,92.003349 
	C87.998390,92.003349 87.976227,91.965088 87.418777,92.287819 
z"/>
<path fill="#E86567" opacity="1.000000" stroke="none" 
	d="
M178.470886,86.835205 
	C179.269745,87.270348 180.068588,87.705490 181.050110,88.742241 
	C182.226135,90.170532 183.219482,90.997215 184.212845,91.823898 
	C184.212845,91.823898 184.114365,91.904381 184.184601,92.210037 
	C186.322128,95.694283 188.389404,98.872871 190.456680,102.051460 
	C190.602890,102.482147 190.749100,102.912834 190.774811,103.904045 
	C190.956833,105.311356 191.259369,106.158142 191.561905,107.004936 
	C191.689194,107.760742 191.816498,108.516541 191.736176,110.018463 
	C191.436813,128.685989 191.340866,146.607361 191.276733,164.528854 
	C191.275085,164.990372 191.622025,165.453125 191.806396,165.915298 
	C191.758316,166.384583 191.710220,166.853851 191.387115,167.766937 
	C191.066757,168.803680 191.021393,169.396622 190.976013,169.989563 
	C190.909439,170.441559 190.842865,170.893539 190.399307,171.820572 
	C188.389496,175.621857 186.756683,178.948120 185.123871,182.274384 
	C185.024780,182.529449 184.868195,182.742218 184.131653,183.065186 
	C182.771439,184.192413 181.933716,185.167160 181.095993,186.141922 
	C181.095993,186.141922 181.059143,186.072647 180.724670,186.133057 
	C176.266876,188.217194 172.143555,190.240891 168.020233,192.264587 
	C166.612106,192.484665 165.203964,192.704727 163.004089,192.714661 
	C156.475098,192.892670 150.737869,193.280838 145.000626,193.669006 
	C143.930923,193.712967 142.861237,193.756927 141.172089,193.450012 
	C130.387207,193.022812 120.221779,192.946487 110.056351,192.870148 
	C109.597183,192.864532 109.138008,192.858917 108.179382,192.526642 
	C106.152100,192.069138 104.624275,191.938278 103.096451,191.807404 
	C102.537971,191.700851 101.979492,191.594299 101.056648,191.013367 
	C96.629395,188.086395 92.566513,185.633774 88.503632,183.181137 
	C88.503632,183.181137 88.228477,183.089020 88.087173,182.649231 
	C86.663338,180.473572 85.380814,178.737717 84.098289,177.001846 
	C83.640228,175.747162 83.182167,174.492493 82.792831,172.446381 
	C82.178810,169.423843 81.496071,167.192703 80.813332,164.961578 
	C80.532051,157.611221 80.250763,150.260849 80.207054,142.088806 
	C80.319763,137.519333 80.194901,133.771530 80.070038,130.023743 
	C80.224823,123.629066 80.379601,117.234390 80.872849,110.169266 
	C82.433578,105.229042 83.655838,100.959267 84.878098,96.689499 
	C84.878098,96.689499 84.954300,96.329803 85.358200,96.065308 
	C86.500137,94.522232 87.238182,93.243660 87.976227,91.965088 
	C87.976227,91.965088 87.998390,92.003349 88.309044,91.914810 
	C89.748993,90.555367 90.878288,89.284477 92.007584,88.013588 
	C92.414101,87.687065 92.820610,87.360535 93.861908,86.919960 
	C97.614098,85.370987 100.731522,83.936073 103.848938,82.501152 
	C119.741959,81.986877 135.632736,81.220894 151.529083,81.079369 
	C158.098938,81.020874 164.680695,82.301437 171.791351,83.403641 
	C173.070801,84.158348 173.815948,84.482407 174.561081,84.806473 
	C174.889664,84.842300 175.218231,84.878128 175.916626,85.301834 
	C177.014587,86.071541 177.742737,86.453369 178.470886,86.835205 
M174.698547,96.728355 
	C170.065491,95.135635 165.474182,92.330574 160.791809,92.169273 
	C144.360855,91.603210 127.890968,91.639854 111.450539,92.044266 
	C98.615036,92.359993 91.341904,99.632156 91.033028,112.473923 
	C90.633408,129.088760 90.640282,145.728607 91.059433,162.342865 
	C91.368141,174.579147 97.994141,181.942566 110.205757,182.468399 
	C127.805893,183.226288 145.473755,183.115097 163.087982,182.572266 
	C173.259521,182.258789 180.649429,175.405304 181.099335,165.227859 
	C181.913391,146.812805 181.830658,128.328384 181.225143,109.902412 
	C181.083862,105.603218 177.349258,101.422104 174.698547,96.728355 
z"/>
<path fill="#E56E71" opacity="1.000000" stroke="none" 
	d="
M191.996872,165.559021 
	C191.622025,165.453125 191.275085,164.990372 191.276733,164.528854 
	C191.340866,146.607361 191.436813,128.685989 191.715210,110.402649 
	C192.189865,111.327187 192.725098,112.613022 192.728455,113.900253 
	C192.770584,130.023361 192.744919,146.146698 192.697845,162.269852 
	C192.694992,163.247955 192.365082,164.225128 191.996872,165.559021 
z"/>
<path fill="#E56E71" opacity="1.000000" stroke="none" 
	d="
M110.416489,193.057739 
	C120.221779,192.946487 130.387207,193.022812 140.773804,193.389221 
	C130.922211,193.534637 120.849419,193.389969 110.416489,193.057739 
z"/>
<path fill="#E56E71" opacity="1.000000" stroke="none" 
	d="
M145.460541,193.758026 
	C150.737869,193.280838 156.475098,192.892670 162.574127,192.683929 
	C157.264084,193.191269 151.592270,193.519150 145.460541,193.758026 
z"/>
<path fill="#E56E71" opacity="1.000000" stroke="none" 
	d="
M88.658218,183.498383 
	C92.566513,185.633774 96.629395,188.086395 100.813148,190.862335 
	C96.893608,188.728973 92.853210,186.272293 88.658218,183.498383 
z"/>
<path fill="#E56E71" opacity="1.000000" stroke="none" 
	d="
M168.373215,192.317505 
	C172.143555,190.240891 176.266876,188.217194 180.762299,186.144150 
	C176.998337,188.186691 172.862274,190.278549 168.373215,192.317505 
z"/>
<path fill="#E56E71" opacity="1.000000" stroke="none" 
	d="
M185.410431,182.089447 
	C186.756683,178.948120 188.389496,175.621857 190.288086,172.145340 
	C188.934921,175.298218 187.315964,178.601349 185.410431,182.089447 
z"/>
<path fill="#E56E71" opacity="1.000000" stroke="none" 
	d="
M84.599869,96.904762 
	C83.655838,100.959267 82.433578,105.229042 81.002518,109.712181 
	C81.969696,105.657043 83.145668,101.388535 84.599869,96.904762 
z"/>
<path fill="#E56E71" opacity="1.000000" stroke="none" 
	d="
M190.452179,101.702942 
	C188.389404,98.872871 186.322128,95.694283 184.214645,92.153992 
	C186.265518,94.979660 188.356598,98.167038 190.452179,101.702942 
z"/>
<path fill="#E56E71" opacity="1.000000" stroke="none" 
	d="
M79.915474,130.388245 
	C80.194901,133.771530 80.319763,137.519333 80.256882,141.620728 
	C79.966400,138.233810 79.863655,134.493286 79.915474,130.388245 
z"/>
<path fill="#E56E71" opacity="1.000000" stroke="none" 
	d="
M103.492569,82.465767 
	C100.731522,83.936073 97.614098,85.370987 94.116943,86.850006 
	C96.870216,85.406197 100.003212,83.918289 103.492569,82.465767 
z"/>
<path fill="#E56E71" opacity="1.000000" stroke="none" 
	d="
M80.714409,165.324387 
	C81.496071,167.192703 82.178810,169.423843 82.817299,172.109253 
	C82.053864,170.271408 81.334679,167.979309 80.714409,165.324387 
z"/>
<path fill="#E56E71" opacity="1.000000" stroke="none" 
	d="
M84.160828,177.332611 
	C85.380814,178.737717 86.663338,180.473572 87.978149,182.553497 
	C86.748077,181.152832 85.485718,179.408112 84.160828,177.332611 
z"/>
<path fill="#E56E71" opacity="1.000000" stroke="none" 
	d="
M103.386536,192.026413 
	C104.624275,191.938278 106.152100,192.069138 107.840439,192.463287 
	C106.559502,192.566177 105.118057,192.405807 103.386536,192.026413 
z"/>
<path fill="#E56E71" opacity="1.000000" stroke="none" 
	d="
M91.688660,88.096420 
	C90.878288,89.284477 89.748993,90.555367 88.290405,91.902603 
	C89.097321,90.712387 90.233536,89.445824 91.688660,88.096420 
z"/>
<path fill="#E56E71" opacity="1.000000" stroke="none" 
	d="
M87.697502,92.126450 
	C87.238182,93.243660 86.500137,94.522232 85.445847,95.903709 
	C85.892662,94.767021 86.655724,93.527420 87.697502,92.126450 
z"/>
<path fill="#E56E71" opacity="1.000000" stroke="none" 
	d="
M184.114136,91.513275 
	C183.219482,90.997215 182.226135,90.170532 181.186981,88.986229 
	C182.099274,89.486618 183.057358,90.344635 184.114136,91.513275 
z"/>
<path fill="#E56E71" opacity="1.000000" stroke="none" 
	d="
M181.404541,186.039337 
	C181.933716,185.167160 182.771439,184.192413 183.959961,183.167633 
	C183.444870,184.057312 182.578964,184.997025 181.404541,186.039337 
z"/>
<path fill="#E56E71" opacity="1.000000" stroke="none" 
	d="
M191.614929,106.695404 
	C191.259369,106.158142 190.956833,105.311356 190.802368,104.245331 
	C191.189606,104.812683 191.428772,105.599281 191.614929,106.695404 
z"/>
<path fill="#E56E71" opacity="1.000000" stroke="none" 
	d="
M191.123993,169.767578 
	C191.021393,169.396622 191.066757,168.803680 191.281235,168.105423 
	C191.390900,168.515274 191.331451,169.030441 191.123993,169.767578 
z"/>
<path fill="#E56E71" opacity="1.000000" stroke="none" 
	d="
M174.374695,84.552742 
	C173.815948,84.482407 173.070801,84.158348 172.162659,83.573410 
	C172.729218,83.641365 173.458771,83.970192 174.374695,84.552742 
z"/>
<path fill="#E56E71" opacity="1.000000" stroke="none" 
	d="
M178.297241,86.571823 
	C177.742737,86.453369 177.014587,86.071541 176.142426,85.409698 
	C176.706802,85.522614 177.415192,85.915527 178.297241,86.571823 
z"/>
<path fill="#FDB9BA" opacity="1.000000" stroke="none" 
	d="
M174.983246,96.957504 
	C177.349258,101.422104 181.083862,105.603218 181.225143,109.902412 
	C181.830658,128.328384 181.913391,146.812805 181.099335,165.227859 
	C180.649429,175.405304 173.259521,182.258789 163.087982,182.572266 
	C145.473755,183.115097 127.805893,183.226288 110.205757,182.468399 
	C97.994141,181.942566 91.368141,174.579147 91.059433,162.342865 
	C90.640282,145.728607 90.633408,129.088760 91.033028,112.473923 
	C91.341904,99.632156 98.615036,92.359993 111.450539,92.044266 
	C127.890968,91.639854 144.360855,91.603210 160.791809,92.169273 
	C165.474182,92.330574 170.065491,95.135635 174.983246,96.957504 
M158.852310,118.707001 
	C157.806213,117.633293 156.818283,116.494728 155.704895,115.496017 
	C145.705460,106.526421 130.762222,105.667542 119.600883,113.391861 
	C108.547844,121.041229 104.283485,135.722870 109.396217,148.525146 
	C114.268501,160.725327 127.226593,168.029633 140.436783,166.133408 
	C162.287903,162.996857 172.921585,137.761688 158.852310,118.707001 
M172.403519,110.576752 
	C173.822159,106.511391 173.483490,102.871864 169.100494,101.005264 
	C165.665054,99.542198 162.582870,100.522835 160.521118,103.818047 
	C158.521225,107.014397 159.223831,110.077217 161.917816,112.262199 
	C165.365723,115.058655 168.937851,114.720108 172.403519,110.576752 
z"/>
<path fill="#E86668" opacity="1.000000" stroke="none" 
	d="
M159.083817,118.984329 
	C172.921585,137.761688 162.287903,162.996857 140.436783,166.133408 
	C127.226593,168.029633 114.268501,160.725327 109.396217,148.525146 
	C104.283485,135.722870 108.547844,121.041229 119.600883,113.391861 
	C130.762222,105.667542 145.705460,106.526421 155.704895,115.496017 
	C156.818283,116.494728 157.806213,117.633293 159.083817,118.984329 
M126.427536,121.729401 
	C119.398369,126.396622 116.730232,133.121033 118.253670,141.162399 
	C119.596024,148.247910 124.261909,152.970612 131.176239,155.057663 
	C139.204849,157.481049 147.564575,154.122452 151.961472,147.040817 
	C156.288437,140.071838 155.563507,131.029968 150.214340,125.249313 
	C143.882645,118.406845 135.814011,117.053352 126.427536,121.729401 
z"/>
<path fill="#E7686A" opacity="1.000000" stroke="none" 
	d="
M172.193359,110.918365 
	C168.937851,114.720108 165.365723,115.058655 161.917816,112.262199 
	C159.223831,110.077217 158.521225,107.014397 160.521118,103.818047 
	C162.582870,100.522835 165.665054,99.542198 169.100494,101.005264 
	C173.483490,102.871864 173.822159,106.511391 172.193359,110.918365 
z"/>
<path fill="#FDB9BA" opacity="1.000000" stroke="none" 
	d="
M126.759430,121.549957 
	C135.814011,117.053352 143.882645,118.406845 150.214340,125.249313 
	C155.563507,131.029968 156.288437,140.071838 151.961472,147.040817 
	C147.564575,154.122452 139.204849,157.481049 131.176239,155.057663 
	C124.261909,152.970612 119.596024,148.247910 118.253670,141.162399 
	C116.730232,133.121033 119.398369,126.396622 126.759430,121.549957 
z"/>
</svg>